<?xml version="1.0" encoding="utf-8"?>
<!-- Generator: Adobe Illustrator 25.0.0, SVG Export Plug-In . SVG Version: 6.00 Build 0)  -->
<svg version="1.1" id="Calque_1" xmlns="http://www.w3.org/2000/svg" xmlns:xlink="http://www.w3.org/1999/xlink" x="0px" y="0px"
	 viewBox="0 0 418.3 377.3" style="enable-background:new 0 0 418.3 377.3;" xml:space="preserve">
<style type="text/css">
	.st0{fill:#FDFDFD;}
	.st1{fill:#020202;}
	.st2{fill:#030303;}
	.st3{fill:#070707;}
	.st4{fill:#FAFAFA;}
	.st5{fill:#FBFBFB;}
	.st6{fill:#F8F8F8;}
	.st7{fill:#F9F9F9;}
	.st8{fill:#F6F6F6;}
	.st9{fill:#F7F7F7;}
	.st10{fill:#0A235B;}
</style>
<g>
	<g>
		<path class="st0" d="M10.7,79.7c1.5-0.9,3-1.8,4.5-2.7c-0.1-0.4-0.2-0.7-0.2-1.1c-1.4-1.2-2.8-2.3-4.2-3.5
			C10.7,74.8,10.7,77.2,10.7,79.7z"/>
		<path class="st0" d="M227,61.4c-1.9-8.5-0.1-15,8-19H77.1c-21.4,0-42.7,0-64.1-0.1c-2,0-2.4,0.4-2.3,2.3
			c0.2,5.4,0.1,10.9,0.1,16.3v0.8c0.5,0.1,1,0.4,1.6,0.8c2.4,1.9,4.8,3.8,7.2,5.8C28.4,58.5,41,51.8,54,50.4c3.6-0.4,4.8,3,3.8,5.7
			c4.1,3.2,6.2,8.7,1.8,13c-2.1,2.1-5.2,3.3-8.1,4.5c-0.8,1.8-1.8,3.5-2.7,5.2c0,0.2,0,0.3,0,0.5s0,0.3-0.1,0.5
			c0.1,0.2,0.2,0.3,0.3,0.4c0.2,0.3,0.3,0.5,0.4,0.8c6.7-0.2,13.3-0.2,20-0.2c5.6,0,5.6,8.7,0,8.7c-7.3,0-14.6,0.1-21.8,0.3
			c7.8,1,15.6,2,23.4,3.5c4.8,0.9,3.7,9-1.2,8.6c-5.1-0.5-10.2-0.8-15.4-1c4.7,4.5,9.4,8.9,14.2,13.2c4.2,3.7-2,9.9-6.2,6.2
			c-4.3-3.8-8.5-7.8-12.7-11.8c-1.1,1.9-3.3,2.9-5.6,1.3c-5.3-3.7-10.8-6.9-16.5-9.7c-3.3-0.1-6.7-0.2-10-0.4
			c-2.1,3.2-4.3,6.3-6.8,9.3c0,88.5,0,177.1-0.1,265.6c0,2.2,0.4,2.7,2.7,2.7c10.5-0.2,20.9-0.1,31.4-0.1c-0.2-0.6-0.8-0.6-1.3-0.7
			c-9.8-3.4-14.8-11.3-13.1-21.5c2.4-14.1,1-27.9-1.8-41.8c-4.5-22.6-2.5-45.1,2.8-67.4c3-12.6,7.2-24.8,12.2-36.8
			c2.2-5.1,5.6-7,9.5-5.3c3.8,1.7,4.8,5.3,2.7,10.3c-7.4,17.3-12.7,35.1-15.1,53.8c-2,16-1.9,32,1.7,47.7
			c3.1,13.7,3.3,27.4,0.9,41.2c-0.5,2.8,0.1,5,2.5,6.5c2.6,1.6,5,0.9,7.2-1c11.4-9.7,24.4-16.1,38.5-20.6
			c21.2-6.9,39.2-19.2,55-34.7c25.1-24.5,44.6-52.8,55.5-86.4c5.1-15.7,8-31.8,7.6-48.5c-0.2-6.2-0.9-12.4-3.2-18.2
			c-2.9-7.7-7-10.4-15.1-10.2c-5.8,0.2-7.3-0.8-9.2-6.1c-1.6-4.4-3.7-5.6-8.5-4.9c-5.8,0.9-7.1,0.2-9.9-5c-4.2-7.7-9.4-10-18.6-7.7
			c-13,3.3-23.8,10.5-34.1,18.6c-8.6,6.8-16.3,14.4-23.4,22.8c-0.6,0.7-1.1,1.3-1.7,2c-2.9,3.1-6.7,3.4-9.6,0.8
			c-2.7-2.4-2.9-6.3-0.3-9.4c4.8-5.8,9.9-11.3,15.4-16.5c12.4-11.6,25.7-21.8,41.6-28.2c5.2-2.1,10.5-3.4,16.1-3.8
			c9.7-0.6,17.5,2.8,23.2,10.7c1.1,1.5,2.1,2.4,4.2,2.3c2,0,4.3,0.2,6,1.2c2.8,1.6,3.5,0.2,4.6-2c5.3-10.5,11.6-20.2,21.2-27.4
			c6-4.5,12.7-7.2,20.4-5.6c2.7,0.6,1.9-1.2,1.7-2.4C229.3,75.8,228.5,68.5,227,61.4z M63.6,176.9c3.7,0,6.7,2.9,6.6,6.5
			c0,3.5-3,6.4-6.4,6.5c-3.6,0.1-6.6-3-6.6-6.6C57.2,179.8,60,177,63.6,176.9z M115.6,158.2c11.2-10.3,21.3-14.8,33.7-14.7
			c25.7,0.3,45.2,23.5,40.3,49.1c-9.7,51-37.5,90.3-79.7,119.7c-8.1,5.7-17.2,9.6-26.7,12.6c-4.1,1.3-8.1,3-12.2,4.4
			c-3.9,1.3-7.9-0.8-8.5-4.7c-1.8-11.9-5-23.6-5-35.8c0-21.5,4.8-42,12.6-61.9C80.4,200.8,94.7,177.3,115.6,158.2z"/>
		<path class="st1" d="M44.7,377.1c-0.2-0.6-0.8-0.6-1.3-0.7c-9.8-3.4-14.8-11.3-13.1-21.5c2.4-14.1,1-27.9-1.8-41.8
			C24,290.5,26,268,31.3,245.7c3-12.6,7.2-24.8,12.2-36.8c2.2-5.1,5.6-7,9.5-5.3c3.8,1.7,4.8,5.3,2.7,10.3
			C48.3,231.2,43,249,40.6,267.7c-2,16-1.9,32,1.7,47.7c3.1,13.7,3.3,27.4,0.9,41.2c-0.5,2.8,0.1,5,2.5,6.5c2.6,1.6,5,0.9,7.2-1
			c11.4-9.7,24.4-16.1,38.5-20.6c21.2-6.9,39.2-19.2,55-34.7c25.1-24.5,44.6-52.8,55.5-86.4c5.1-15.7,8-31.8,7.6-48.5
			c-0.2-6.2-0.9-12.4-3.2-18.2c-2.9-7.7-7-10.4-15.1-10.2c-5.8,0.2-7.3-0.8-9.2-6.1c-1.6-4.4-3.7-5.6-8.5-4.9
			c-5.8,0.9-7.1,0.2-9.9-5c-4.2-7.7-9.4-10-18.6-7.7c-13,3.3-23.8,10.5-34.1,18.6c-8.6,6.8-16.3,14.4-23.4,22.8
			c-0.6,0.7-1.1,1.3-1.7,2c-2.9,3.1-6.7,3.4-9.6,0.8c-2.7-2.4-2.9-6.3-0.3-9.4c4.8-5.8,9.9-11.3,15.4-16.5
			c12.4-11.6,25.7-21.8,41.6-28.2c5.2-2.1,10.5-3.4,16.1-3.8c9.7-0.6,17.5,2.8,23.2,10.7c1.1,1.5,2.1,2.4,4.2,2.3c2,0,4.3,0.2,6,1.2
			c2.8,1.6,3.5,0.2,4.6-2c5.3-10.5,11.6-20.2,21.2-27.4c6-4.5,12.7-7.2,20.4-5.6c2.7,0.6,1.9-1.2,1.7-2.4
			c-1.1-7.2-1.8-14.5-3.3-21.6c-1.9-8.5-0.1-15,8-19c8.9,0,17.9,0,26.8,0c9.2,3.9,11.1,7.7,9.3,17.9c-1.5,8.3-2.9,16.6-4.4,24.9
			c0,0.2,0.1,0.5,0.1,0.7c0.1-0.1,0.3-0.2,0.4-0.3c7.5-1.5,14.5-0.3,20.9,3.9c5.8,3.8,10.5,8.8,14.5,14.5
			c16.1,23.1,23.6,49.2,26.5,76.8c2.6,24.3,0.7,48.5-4.5,72.4c-6.7,30.9-19.1,59-41,82.4c-6.8,7.3-12,15.8-15.3,25.2
			c-2.8,8.2-7.5,14.2-16.3,16.2c-2.4,0-4.8,0-7.2,0c-0.2-0.2-0.4-0.6-0.6-0.6c-6.9-2.1-11-6.8-13.4-13.5
			c-3.9-10.9-9.8-20.5-17.6-29.1c-5.6-6.1-10.7-12.6-15.2-19.6c-5.9-9.2-10.7-19-15-29.4c-0.8,1.1-1.5,1.9-2.2,2.8
			c-5.7,7.7-11.9,15-18.5,21.9c-20.1,20.8-43.1,37.1-71,45.8c-9.4,2.9-18.1,7.5-25.9,13.5c-4.2,3.3-8.3,6.8-13.6,8.3
			C49.5,377.1,47.1,377.1,44.7,377.1z M269.8,98.9c2.9,4.9,5.2,9.6,7.1,14.6c8.2,21.9,11,44.7,11.6,67.9c0.8,30.5-1.6,60.7-7.1,90.7
			c-1.5,8.3-3.4,16.6-5.7,24.8c-1.3,4.3-4.5,6.6-8.1,5.6c-3.7-1-5.5-4.5-4.5-8.8c0.5-1.9,1-3.8,1.4-5.7
			c8.8-35.6,11.8-71.9,10.9-108.5c-0.5-19.1-2.9-38-8.9-56.2c-2.3-7.1-5.1-14.1-9.8-20.1c-5.2-6.6-9.8-6.6-15.1-0.2
			c-3.1,3.8-5.3,8.2-7.2,12.7c-6.8,16.7-9.7,34.2-11.1,52.1c-1,12-1.1,24.1-3.6,36c-4.7,23.2-13.3,44.9-26,65
			c-0.9,1.4-1.7,2.6-1.1,4.4c6.6,18.6,15.6,35.9,29,50.6c4.1,4.5,8,9.2,11.3,14.4c4.4,6.8,7.9,14,10.6,21.6c0.9,2.6,2.6,4.3,5.5,4.3
			s4.6-1.7,5.5-4.3c0.2-0.6,0.5-1.2,0.7-1.8c4.5-11.8,10.8-22.6,19.3-31.9c7.5-8.1,14.2-16.8,19.3-26.6c22.1-43.1,28-88.6,19.2-136
			c-3.4-18.5-10-36-21-51.5c-3.1-4.4-6.6-8.4-11.1-11.4C277.6,98.3,274,97.2,269.8,98.9z M228.3,98.9c-4.4-1.9-8.1-0.4-11.4,2
			c-10.2,7.5-15.9,18.3-21.3,29.6c7.4,0.8,13.4,3.8,18.2,9.5C216.8,125.3,220.6,111.5,228.3,98.9z M249.2,55.4c-2.5,0-5,0.1-7.5,0
			c-2-0.1-2.3,0.6-2,2.4c1.2,7.6,2.3,15.2,3.5,22.8c0.7,4.5,0.8,4.5,5.4,4.3c0.8,0,1.6-0.2,2.3,0.1c2.2,0.9,2.5-0.4,2.8-2.1
			c1.3-7.3,2.6-14.5,4-21.8c1.1-5.8,1.1-5.8-4.9-5.8C251.6,55.4,250.4,55.4,249.2,55.4z"/>
		<path class="st0" d="M266.7,85.2c1.5-8.3,2.9-16.6,4.4-24.9c1.8-10.3-0.1-14.1-9.3-17.9c27.1,0,54.2,0,81.3,0
			c1.8,0,2.4,0.2,2.4,2.3c-0.1,110.6-0.1,221.3-0.1,331.9c0,0.2,0,0.4-0.1,0.6c-31.1,0-62.3,0-93.4,0c8.8-2.1,13.4-8,16.3-16.2
			c3.3-9.4,8.5-17.9,15.3-25.2c21.9-23.4,34.3-51.5,41-82.4c5.2-23.9,7-48.1,4.5-72.4c-2.9-27.6-10.4-53.7-26.5-76.8
			c-4-5.7-8.7-10.6-14.5-14.5c-6.4-4.2-13.4-5.5-20.9-3.9C267,85.5,266.8,85.3,266.7,85.2z"/>
		<path class="st0" d="M51.9,377.1c5.3-1.5,9.3-5,13.6-8.3c7.8-6,16.4-10.5,25.9-13.5c27.9-8.7,50.9-25,71-45.8
			c6.7-6.9,12.8-14.3,18.5-21.9c0.6-0.9,1.3-1.7,2.2-2.8c4.2,10.4,9,20.2,15,29.4c4.5,7,9.6,13.5,15.2,19.6
			c7.8,8.5,13.8,18.2,17.6,29.1c2.4,6.7,6.5,11.4,13.4,13.5c0.3,0.1,0.4,0.4,0.6,0.6C180.5,377.1,116.2,377.1,51.9,377.1z"/>
		<path class="st2" d="M149.4,143.5c25.7,0.3,45.2,23.5,40.3,49.1c-9.7,51-37.5,90.3-79.7,119.7c-8.1,5.7-17.2,9.6-26.7,12.6
			c-4.1,1.3-8.1,3-12.2,4.4c-3.9,1.3-7.9-0.8-8.5-4.7c-1.8-11.9-5-23.6-5-35.8c0-21.5,4.8-42,12.6-61.9
			c10.3-26.1,24.6-49.6,45.5-68.7C126.9,147.9,136.9,143.4,149.4,143.5z M163.6,231.7c0.2-1.1-0.7-1.3-1.3-1.6
			c-7.4-4.3-14.8-8.5-22.2-12.9c-1.4-0.8-2.1-0.7-3,0.8c-2.1,3.8-4.2,7.6-6.5,11.3c-1,1.6-0.8,2.3,0.8,3.2
			c5.7,3.1,11.3,6.5,16.9,9.7c7.1,4.1,7.1,4.1,11.2-3C161,236.6,162.3,234.1,163.6,231.7z M101.4,195c-0.4,0.5-0.8,0.9-1.1,1.4
			c-2.4,4-4.7,8.1-7.1,12.1c-1,1.6,0.1,1.9,1,2.4c7.4,4.3,14.9,8.5,22.3,12.9c1.6,0.9,2.2,0.5,2.9-0.9c2.1-3.7,4.1-7.4,6.4-11
			c1.1-1.7,0.8-2.5-0.9-3.5c-7.2-4-14.3-8.2-21.5-12.3C102.7,195.7,102.2,195.4,101.4,195z M87,221.8c-0.8,0.2-0.9,0.8-1.2,1.4
			c-1.7,4.2-3.4,8.5-5.2,12.6c-0.7,1.6-0.3,2.3,1.1,3.1c6.5,3.7,13,7.4,19.5,11.3c1.6,1,2.2,0.5,2.9-0.9c2.1-3.8,4.2-7.6,6.5-11.3
			c1.1-1.7,0.5-2.3-1-3.2c-7-4-13.9-8-20.9-12C88.2,222.5,87.6,222.1,87,221.8z M148.2,257.1c-8-4.6-15.6-9-23.2-13.4
			c-1.3-0.8-2.2-1-3.1,0.6c-2.1,3.9-4.3,7.8-6.7,11.6c-1,1.6-0.3,2.2,1,2.9c6.4,3.6,12.8,7.3,19.2,11.1c1.3,0.8,2.1,1,3.2-0.5
			C141.7,265.3,144.9,261.4,148.2,257.1z M141.9,183.6c0.1-1-0.8-1-1.4-1.4c-5.9-3.5-11.8-6.8-17.7-10.3c-1.1-0.6-1.8-0.7-2.8,0.3
			c-3.2,3.6-6.4,7.1-9.7,10.6c-1.1,1.2-0.7,1.7,0.5,2.4c7.1,4,14.1,8.1,21.2,12.2c1.3,0.8,1.8,0.5,2.5-0.7c2.3-4.1,4.7-8.1,7-12.1
			C141.6,184.3,141.7,184,141.9,183.6z M168.6,218.6c0.9,0,0.9-0.7,1.1-1.3c1.5-4.5,2.9-9.1,4.4-13.6c0.5-1.5-0.2-2.1-1.4-2.8
			c-5.9-3.3-11.7-6.7-17.5-10.1c-1.3-0.8-2-0.7-2.7,0.7c-2.1,3.8-4.2,7.6-6.5,11.3c-1,1.6-1,2.4,0.9,3.4c6.7,3.7,13.4,7.6,20,11.5
			C167.4,217.9,168,218.2,168.6,218.6z M72.1,267c-0.2,1.2,0.5,1.8,1.5,2.3c4.3,2.4,8.5,4.8,12.7,7.3c1.3,0.8,1.8,0.4,2.5-0.8
			c2.2-4,4.5-7.9,6.8-11.8c0.6-1.1,0.9-1.8-0.5-2.5c-5.9-3.3-11.7-6.7-17.5-10c-0.9-0.5-1.7-1-2.1,0.6
			C74.4,257.1,73.2,262.1,72.1,267z M127.8,281.3c0.2-0.9-0.5-1-0.9-1.3c-5.9-3.4-11.9-6.8-17.7-10.3c-1.5-0.9-1.8-0.1-2.4,0.9
			c-2.2,3.9-4.4,7.7-6.7,11.5c-0.9,1.4-0.7,2.1,0.8,2.9c4.1,2.2,8.1,4.6,12.1,7c1.4,0.8,2.3,0.7,3.4-0.3c3.4-3.2,6.9-6.3,10.4-9.4
			C127.1,282,127.5,281.6,127.8,281.3z M177.1,188.3c0.5-8.6-2.5-17.6-7.4-22.6c-0.8-0.8-1.4-1.9-2.3-0.1c-2.1,3.9-4.4,7.7-6.7,11.6
			c-0.6,1-0.4,1.5,0.6,2.1C166.5,182.1,171.6,185.1,177.1,188.3z M131.6,162c5.5,3.2,10.7,6.2,15.8,9.2c0.9,0.6,1.5,0.5,2-0.5
			c2.4-4.3,4.9-8.6,7.5-13.1C147.8,155.5,139.6,156.8,131.6,162z M83.6,310.8c7.3-2.3,13.3-5.6,19.4-9.4c-3.2-1.9-6.1-3.5-8.9-5.3
			c-1-0.6-1.6-0.7-2.3,0.5C89.2,301.2,86.6,305.6,83.6,310.8z M72.2,304.4c3-5.2,5.7-9.8,8.3-14.3c0.4-0.8,0.6-1.4-0.3-1.9
			c-3-1.7-6.1-3.5-9.4-5.4C70.5,290.2,70.7,297,72.2,304.4z"/>
		<path class="st3" d="M63.6,176.9c3.7,0,6.7,2.9,6.6,6.5c0,3.5-3,6.4-6.4,6.5c-3.6,0.1-6.6-3-6.6-6.6C57.2,179.8,60,177,63.6,176.9
			z"/>
		<path class="st0" d="M269.8,98.9c4.2-1.7,7.7-0.5,11.1,1.6c4.6,3,8,7,11.1,11.4c11,15.6,17.5,33,21,51.5c8.8,47.4,3,92.9-19.2,136
			c-5,9.8-11.8,18.5-19.3,26.6c-8.5,9.3-14.8,20.1-19.3,31.9c-0.2,0.6-0.5,1.2-0.7,1.8c-0.9,2.6-2.7,4.3-5.5,4.3
			c-2.9,0-4.6-1.7-5.5-4.3c-2.7-7.6-6.2-14.8-10.6-21.6c-3.3-5.1-7.2-9.9-11.3-14.4c-13.4-14.7-22.4-32-29-50.6
			c-0.7-1.9,0.2-3.1,1.1-4.4c12.7-20.1,21.3-41.7,26-65c2.4-11.9,2.6-24,3.6-36c1.4-17.8,4.3-35.4,11.1-52.1
			c1.9-4.5,4.1-8.9,7.2-12.7c5.3-6.4,9.9-6.4,15.1,0.2c4.7,6,7.4,13,9.8,20.1c6,18.3,8.4,37.1,8.9,56.2
			c0.9,36.6-2.1,72.9-10.9,108.5c-0.5,1.9-1,3.8-1.4,5.7c-1,4.3,0.7,7.8,4.5,8.8c3.6,1,6.9-1.2,8.1-5.6c2.4-8.2,4.2-16.4,5.7-24.8
			c5.5-30,7.9-60.2,7.1-90.7c-0.6-23.1-3.4-46-11.6-67.9C275.1,108.5,272.7,103.7,269.8,98.9z"/>
		<path class="st4" d="M228.3,98.9c-7.7,12.6-11.5,26.4-14.5,41.1c-4.8-5.7-10.7-8.7-18.2-9.5c5.3-11.4,11-22.1,21.3-29.6
			C220.1,98.5,223.8,97,228.3,98.9z"/>
		<path class="st5" d="M249.2,55.4c1.2,0,2.4,0,3.6,0c6.1,0,6,0,4.9,5.8c-1.4,7.2-2.7,14.5-4,21.8c-0.3,1.7-0.7,2.9-2.8,2.1
			c-0.7-0.3-1.5-0.1-2.3-0.1c-4.7,0.1-4.7,0.2-5.4-4.3c-1.2-7.6-2.3-15.2-3.5-22.8c-0.3-1.8,0-2.5,2-2.4
			C244.2,55.6,246.7,55.4,249.2,55.4z"/>
		<path class="st0" d="M267.1,85.6c-0.1,0.1-0.3,0.2-0.4,0.3c0-0.2-0.1-0.5-0.1-0.7C266.8,85.3,267,85.5,267.1,85.6z"/>
		<path class="st4" d="M163.6,231.7c-1.3,2.4-2.6,4.9-4,7.4c-4.1,7.2-4.1,7.1-11.2,3c-5.6-3.3-11.2-6.6-16.9-9.7
			c-1.6-0.9-1.8-1.6-0.8-3.2c2.3-3.7,4.4-7.4,6.5-11.3c0.8-1.5,1.5-1.6,3-0.8c7.4,4.3,14.8,8.6,22.2,12.9
			C162.9,230.4,163.8,230.6,163.6,231.7z"/>
		<path class="st5" d="M101.4,195c0.8,0.4,1.4,0.7,1.9,1c7.2,4.1,14.3,8.3,21.5,12.3c1.8,1,2,1.8,0.9,3.5c-2.2,3.6-4.3,7.3-6.4,11
			c-0.8,1.4-1.3,1.9-2.9,0.9c-7.4-4.4-14.9-8.6-22.3-12.9c-0.9-0.5-2-0.9-1-2.4c2.5-4,4.8-8,7.1-12.1
			C100.6,195.9,101,195.4,101.4,195z"/>
		<path class="st4" d="M87,221.8c0.6,0.3,1.1,0.6,1.7,1c7,4,13.9,8.1,20.9,12c1.5,0.8,2.1,1.5,1,3.2c-2.3,3.7-4.4,7.5-6.5,11.3
			c-0.8,1.4-1.3,1.9-2.9,0.9c-6.4-3.9-12.9-7.6-19.5-11.3c-1.4-0.8-1.8-1.5-1.1-3.1c1.8-4.2,3.5-8.4,5.2-12.6
			C86.1,222.6,86.3,222,87,221.8z"/>
		<path class="st4" d="M148.2,257.1c-3.3,4.2-6.5,8.2-9.6,12.3c-1.1,1.4-1.9,1.2-3.2,0.5c-6.4-3.7-12.7-7.4-19.2-11.1
			c-1.3-0.8-2-1.3-1-2.9c2.4-3.8,4.6-7.6,6.7-11.6c0.9-1.7,1.7-1.4,3.1-0.6C132.6,248.1,140.2,252.5,148.2,257.1z"/>
		<path class="st4" d="M141.9,183.6c-0.2,0.4-0.3,0.7-0.5,1c-2.3,4-4.7,8.1-7,12.1c-0.7,1.2-1.2,1.5-2.5,0.7
			c-7-4.1-14.1-8.2-21.2-12.2c-1.2-0.7-1.6-1.2-0.5-2.4c3.3-3.5,6.5-7,9.7-10.6c0.9-1,1.7-1,2.8-0.3c5.9,3.5,11.8,6.9,17.7,10.3
			C141,182.6,142,182.7,141.9,183.6z"/>
		<path class="st4" d="M168.6,218.6c-0.6-0.3-1.2-0.6-1.7-1c-6.7-3.8-13.3-7.8-20-11.5c-1.8-1-1.9-1.8-0.9-3.4
			c2.3-3.7,4.4-7.5,6.5-11.3c0.8-1.4,1.4-1.5,2.7-0.7c5.8,3.4,11.6,6.8,17.5,10.1c1.2,0.7,1.8,1.4,1.4,2.8
			c-1.5,4.5-2.9,9.1-4.4,13.6C169.5,217.8,169.5,218.6,168.6,218.6z"/>
		<path class="st4" d="M72.1,267c1.1-5,2.3-9.9,3.4-14.9c0.4-1.6,1.1-1.2,2.1-0.6c5.8,3.4,11.6,6.7,17.5,10c1.4,0.8,1.1,1.5,0.5,2.5
			c-2.3,3.9-4.6,7.9-6.8,11.8c-0.6,1.1-1.1,1.6-2.5,0.8c-4.2-2.5-8.4-4.9-12.7-7.3C72.6,268.8,71.9,268.3,72.1,267z"/>
		<path class="st4" d="M127.8,281.3c-0.3,0.3-0.6,0.7-1,1.1c-3.5,3.1-7,6.2-10.4,9.4c-1.1,1.1-2,1.2-3.4,0.3c-4-2.4-8-4.8-12.1-7
			c-1.5-0.8-1.6-1.5-0.8-2.9c2.3-3.8,4.5-7.7,6.7-11.5c0.6-1,0.9-1.8,2.4-0.9c5.9,3.5,11.8,6.9,17.7,10.3
			C127.3,280.3,128,280.4,127.8,281.3z"/>
		<path class="st6" d="M177.1,188.3c-5.5-3.2-10.6-6.2-15.8-9.1c-1-0.6-1.1-1.1-0.6-2.1c2.3-3.8,4.5-7.7,6.7-11.6
			c1-1.8,1.6-0.7,2.3,0.1C174.6,170.7,177.7,179.7,177.1,188.3z"/>
		<path class="st7" d="M131.6,162c8-5.2,16.1-6.5,25.4-4.5c-2.6,4.5-5.1,8.8-7.5,13.1c-0.6,1-1.1,1.1-2,0.5
			C142.3,168.2,137.2,165.2,131.6,162z"/>
		<path class="st8" d="M83.6,310.8c3-5.2,5.6-9.6,8.1-14.1c0.7-1.2,1.3-1.1,2.3-0.5c2.9,1.7,5.8,3.4,8.9,5.3
			C96.9,305.2,90.9,308.5,83.6,310.8z"/>
		<path class="st9" d="M72.2,304.4c-1.5-7.4-1.6-14.2-1.4-21.6c3.4,1.9,6.4,3.7,9.4,5.4c0.9,0.5,0.8,1.1,0.3,1.9
			C77.8,294.7,75.2,299.2,72.2,304.4z"/>
	</g>
	<g>
		<g>
			<path class="st10" d="M4.3,98.9C4.3,98.9,4.2,98.9,4.3,98.9c-0.8,1.9-1.6,3.8-2.3,5.6c-0.7-0.2-1.3-0.3-2-0.5
				c0.9-2.3,1.9-4.7,2.9-7c0.8-1,1.6-2,2.4-2.9c4.6,4.1,9.3,8.2,13.9,12.3c-0.9,1-1.7,2-2.6,3C12.5,105.8,8.4,102.3,4.3,98.9z"/>
			<path class="st10" d="M33.8,77.7c4.2,5,3.8,10.2-0.9,14.7c-4.1,4-9.3,4.5-13.9,0.3c-4.5-4.3-3.9-10.3,0.8-15
				C24.6,72.8,29.8,73,33.8,77.7z M21.9,89.6c3.5,3.5,7.1,3.7,9.7,1.2c3-2.9,2.4-6.5-0.9-10.2c-3.1-3.5-6.6-4.5-9.8-1.3
				C18.3,82,18.3,86,21.9,89.6z"/>
			<path class="st10" d="M51.5,62.8c3.8,5.6,3,10.8-2,14.8c-4.4,3.6-9.6,3.4-13.8-1.4c-4.2-4.9-3.1-10.8,1.9-15
				C42.8,56.8,48,57.6,51.5,62.8z M38.9,73.5c3.2,3.9,6.8,4.6,9.6,2.3c3.1-2.5,2.8-6.3-0.1-10.4c-2.8-3.9-6.3-5.3-9.6-2.5
				C35.9,65.4,35.6,69.4,38.9,73.5z"/>
			<path class="st10" d="M62.8,49.6c2.2,3.7,0.5,7.3-2.6,9.5c-3,2.1-6.7,2.4-9-0.8c-2.3-3.3-0.8-7.2,2.6-9.7
				C57.3,46,60.8,46.3,62.8,49.6z M53.7,56.2c1.3,2.2,3.6,2.9,5.6,1.5c2.2-1.5,2.2-3.9,0.8-6.1c-1.3-2.1-3.3-3.2-5.6-1.5
				C52.3,51.6,52.3,54.1,53.7,56.2z M64.5,66.4c0.9-9,2.2-18.3,4-27.8c0.8-0.5,1.5-0.9,2.3-1.4c-1.9,9.5-3.3,18.7-4.3,27.8
				C65.8,65.4,65.1,65.9,64.5,66.4z M83.3,46.8c1.9,3.9,0.1,7.4-3,9.2c-3,1.8-6.7,1.6-8.7-1.9c-2-3.6-0.4-7.3,3-9.4
				C78.2,42.6,81.6,43.3,83.3,46.8z M74.2,52.4c1.2,2.3,3.4,3.3,5.4,2.1c2.2-1.3,2.3-3.6,1.1-6c-1.1-2.2-3-3.6-5.4-2.1
				C73.1,47.6,72.9,50.2,74.2,52.4z"/>
			<path class="st10" d="M92.7,37.2c-0.8-1.8-1.5-3.3-2.2-4.6c1.1-0.6,2.2-1.1,3.3-1.6c0.4,0.8,0.8,1.6,1.2,2.4h0.1
				c0.7-2.5,2.7-4.7,6-6.2c5-2.3,9.8-0.7,11.3,4c1.8,5.5-1.5,9.9-6,11.8c-2.5,1.1-5.1,1.3-6.8,0.4h-0.1c1.1,2.6,2.2,5.3,3.3,7.9
				c-1.1,0.5-2.2,1-3.3,1.6C97.2,47.6,94.9,42.4,92.7,37.2z M97.8,39.3c0.2,0.4,0.4,0.7,0.6,1c1.4,1.5,4,1.8,6.5,0.7
				c3.7-1.6,5-4.9,3.8-8.4c-1.1-3-4.1-4.7-8-2.9c-2.5,1.1-4.3,3.6-4.2,5.9c0,0.4,0.1,0.8,0.2,1.2C97.2,37.7,97.5,38.5,97.8,39.3z"/>
			<path class="st10" d="M134.2,27.5c0.4,1.7,0.8,3.1,1.2,4.3c-1.1,0.3-2.1,0.6-3.2,1c-0.3-0.8-0.6-1.7-0.9-2.5h-0.1
				c-0.6,1.6-2.3,3.9-5.8,5.1c-3.1,1-7.2,1.1-8.9-4.3c-0.9-3-1.9-6-2.8-9c1.3-0.5,2.5-1,3.8-1.5c0.9,2.9,1.7,5.7,2.6,8.6
				c0.9,3,2.6,4.5,5.9,3.4c2.4-0.8,3.8-2.7,4.1-4.2c0.1-0.5,0.1-1.1,0-1.6c-0.8-3.2-1.7-6.5-2.5-9.7c1.3-0.4,2.6-0.8,3.8-1.2
				C132.3,19.7,133.2,23.6,134.2,27.5z"/>
			<path class="st10" d="M138,19.2c-0.4-1.9-0.8-3.5-1.3-5c1.1-0.3,2.3-0.7,3.4-1c0.3,1.1,0.5,2.1,0.8,3.2c0.1,0,0.1,0,0.2,0
				c0.5-2.5,2.6-4.5,5.2-5.1c0.4-0.1,0.8-0.2,1.1-0.2c0.2,0.9,0.3,1.9,0.5,2.8c-0.4,0-0.8,0.1-1.3,0.2c-2.7,0.7-4.3,2.8-4.4,5.2
				c0,0.4,0,0.9,0.1,1.4c0.6,2.9,1.2,5.8,1.7,8.7c-1.2,0.3-2.4,0.6-3.6,1C139.6,26.7,138.8,22.9,138,19.2z"/>
			<path class="st10" d="M161.1,25.6c-0.1-1.2-0.2-2.9-0.4-4.4c-0.8-6.8-1.7-13.6-2.5-20.4c1.3-0.3,2.7-0.5,4-0.8
				c0.4,3.6,0.8,7.1,1.2,10.7h0.1c1.2-2.1,3.6-3.8,7.1-4.4c5.4-0.9,9.5,2.3,9.6,7.6c0.2,6.2-4.2,9.8-8.7,10.4
				c-2.9,0.4-5.4-0.1-7.2-2.1h-0.1c0,0.9,0.1,1.9,0.1,2.8C163.2,25.2,162.2,25.4,161.1,25.6z M164.2,18.1c0,0.4,0.2,0.8,0.3,1.1
				c1,2,3.3,3.1,6,2.7c3.9-0.6,6.1-3.5,5.9-7.5c-0.2-3.5-2.6-6.1-6.8-5.5c-2.7,0.4-5,2.3-5.6,4.8c-0.1,0.4-0.1,0.8-0.1,1.3
				C164,16.1,164.1,17.1,164.2,18.1z"/>
			<path class="st10" d="M186.4,14c0.2,4.3,3.5,5.8,7.2,5.6c2.7-0.2,4.3-0.6,5.8-1.2c0.2,0.8,0.4,1.5,0.6,2.3
				c-1.3,0.6-3.6,1.2-6.9,1.4c-6.3,0.4-10.2-2.7-10.4-8c-0.2-5.2,3.5-9.9,10-10.4c7.2-0.5,8.9,4.6,8.8,7.8c0,0.7-0.1,1.2-0.2,1.5
				C196.3,13.2,191.3,13.5,186.4,14z M197.7,10.9c0.1-2-0.9-5.2-5.4-4.9c-4,0.3-5.7,3.5-6,5.7C190.2,11.3,193.9,11.1,197.7,10.9z"/>
			<path class="st10" d="M222.7,16.7c-0.2,1.9-0.4,3.5-0.4,4.9c-1.1-0.1-2.2-0.1-3.3-0.2c0-1,0.1-2,0.1-3H219
				c-1.1,1.4-3.5,3.2-7.1,3.2c-3.2-0.1-7-1.6-6.7-7.8c0.2-3.5,0.3-7,0.5-10.4c1.3,0,2.7-0.1,4-0.1c-0.2,3.3-0.4,6.6-0.6,9.9
				c-0.2,3.4,0.8,5.7,4.3,5.7c2.5,0,4.4-1.4,5.3-2.8c0.3-0.5,0.5-1.1,0.5-1.7c0.4-3.7,0.8-7.4,1.1-11.1c1.3,0,2.7,0.1,4,0.1
				C223.8,7.9,223.3,12.3,222.7,16.7z"/>
			<path class="st10" d="M229.3,9.5c0.3-2.1,0.5-4,0.6-5.7c1.2,0.1,2.3,0.2,3.5,0.2c-0.1,1.2-0.3,2.4-0.4,3.6c0.1,0,0.1,0,0.2,0
				c1.4-2.4,4-3.7,6.7-3.4c0.5,0,0.8,0.1,1.1,0.2c-0.2,1-0.4,2.1-0.6,3.1c-0.4-0.1-0.8-0.2-1.3-0.3c-2.8-0.3-5.1,1.3-6,3.8
				c-0.2,0.4-0.3,1-0.4,1.5c-0.5,3.2-1,6.5-1.5,9.7c-1.2-0.1-2.5-0.2-3.7-0.3C228.1,17.8,228.7,13.7,229.3,9.5z"/>
			<path class="st10" d="M243,10.8c0.4-2.1,0.7-4,0.9-5.7c1.2,0.1,2.3,0.3,3.5,0.4c-0.2,1.2-0.4,2.4-0.6,3.6c0.1,0,0.1,0,0.2,0
				c1.5-2.3,4.2-3.6,6.9-3.1c0.5,0.1,0.8,0.2,1.1,0.3c-0.2,1-0.5,2.1-0.7,3.1c-0.4-0.1-0.8-0.2-1.3-0.3c-2.8-0.4-5.1,1.1-6.2,3.5
				c-0.2,0.4-0.4,1-0.5,1.5c-0.7,3.2-1.3,6.5-2,9.7c-1.2-0.2-2.4-0.3-3.7-0.5C241.4,19.2,242.2,15,243,10.8z"/>
			<path class="st10" d="M257.7,17.2c-1,4.5,1.7,7,5.4,7.8c2.6,0.6,4.4,0.5,5.9,0.4c0,0.8-0.1,1.7-0.1,2.5c-1.5,0.2-3.8,0.3-7-0.4
				c-6.2-1.3-9-5.7-7.7-11.2s6.2-9.3,12.6-8c7.1,1.5,7.3,7.2,6.3,10.6c-0.2,0.7-0.5,1.2-0.6,1.5C267.5,19.2,262.6,18.1,257.7,17.2z
				 M269.6,17.1c0.7-2.1,0.6-5.7-3.8-6.6c-4-0.8-6.5,2-7.4,4.3C262.1,15.5,265.8,16.3,269.6,17.1z"/>
			<path class="st10" d="M310,11.5c-3.2,7.3-6.4,14.6-9.6,21.8c-0.7,1.6-1.5,3.4-1.9,4.7c-1.1-0.4-2.1-0.8-3.2-1.2
				c0.4-1.1,0.8-2.1,1.2-3.2h-0.1c-2,1.6-5,2.3-8.2,1.2c-4.7-1.6-7.1-6.4-5.1-11.9c2.1-6.1,7.8-8.6,13-6.9c3.2,1,4.9,3.1,5.2,4.9
				h0.1c1.5-3.6,3-7.2,4.6-10.8C307.4,10.5,308.7,11,310,11.5z M299.4,25.9c0.2-0.4,0.4-1,0.4-1.4c0.3-2.3-1-4.7-3.9-5.7
				c-4-1.3-7.4,1-8.9,5.1c-1.4,3.7-0.5,7.3,3.4,8.6c2.4,0.8,5.2,0.2,6.9-2.1c0.3-0.4,0.5-0.8,0.8-1.4C298.5,28,299,27,299.4,25.9z"
				/>
			<path class="st10" d="M309.4,32.4c-2,4.5,0.2,7.5,3.7,9.1c2.5,1.1,4.2,1.4,5.8,1.5c-0.2,0.9-0.4,1.7-0.6,2.6
				c-1.5-0.1-3.9-0.5-6.9-1.8c-5.8-2.6-7.7-7.7-5.3-13.1c2.4-5.4,8.1-8.3,14.2-5.7c6.8,2.9,5.7,8.9,4,12.2c-0.4,0.7-0.7,1.1-0.9,1.4
				C318.7,36.4,314.1,34.3,309.4,32.4z M321.2,34.7c1.1-2,1.8-5.7-2.4-7.5c-3.8-1.6-6.9,0.8-8.2,2.9
				C314.1,31.5,317.7,33.1,321.2,34.7z"/>
			<path class="st10" d="M343.1,59.7c-1.1-0.1-3.4-0.7-5.8-2.2c-5.4-3.3-6.9-8.8-3.8-14.2c3.2-5.4,9.7-7.1,16.2-3.4
				c2.1,1.2,3.7,2.8,4.3,3.8c-0.8,0.6-1.6,1.3-2.4,1.9c-0.5-0.9-1.6-2.1-3.5-3.3c-4.5-2.6-8.7-1-10.9,2.7c-2.4,4-1.2,8.1,2.4,10.2
				c1.9,1.1,3.4,1.5,4.6,1.7C343.8,57.9,343.5,58.8,343.1,59.7z"/>
			<path class="st10" d="M355.5,69c0.5-0.8,0.9-1.5,1.3-2.3l-0.1-0.1c-2,0.6-4.7,0.4-7.2-1.3c-3.5-2.4-3.7-6-2-8.5
				c2.8-4.1,8.4-3.9,15.5,1.1c0.1-0.1,0.2-0.2,0.3-0.3c1-1.4,2.5-4.2-1.3-6.8c-1.8-1.2-3.9-1.9-5.8-2c0.2-0.8,0.4-1.7,0.6-2.5
				c2.2,0.1,4.9,1,7.3,2.6c5.8,4,4.5,8.5,1.9,11.8c-1.6,2.1-3.2,4.1-4.8,6.2c-1.1,1.4-2.1,2.9-2.8,4.2
				C357.4,70.4,356.4,69.7,355.5,69z M361.5,60.2c-3.5-2.6-8.1-4.8-10.4-1.5c-1.4,2-0.7,3.9,1,5c2.3,1.6,4.8,1.2,6.4,0.2
				c0.3-0.2,0.7-0.5,0.9-0.8C360,62.1,360.7,61.1,361.5,60.2z"/>
			<path class="st10" d="M374.7,83.5c-1.1-0.3-3.3-1.3-5.5-3.2c-4.9-4.2-5.6-10.1-1.6-15.1c4-5.1,10.9-5.9,16.8-1
				c1.9,1.6,3.2,3.5,3.8,4.6c-0.9,0.5-1.8,1.1-2.7,1.6c-0.4-1-1.3-2.4-3-3.9c-4.1-3.4-8.6-2.3-11.4,1.1c-3.1,3.8-2.5,8.1,0.8,10.9
				c1.7,1.5,3.2,2,4.4,2.4C375.7,81.8,375.2,82.6,374.7,83.5z"/>
			<path class="st10" d="M385.7,95c0.6-0.7,1.1-1.4,1.7-2.1l-0.1-0.1c-2.1,0.3-4.8-0.3-7.1-2.4c-3.2-3-2.8-6.8-0.7-9.1
				c3.5-3.8,9.1-2.7,15.5,3.5c0.1-0.1,0.2-0.2,0.3-0.3c1.3-1.2,3.2-3.9-0.3-7.2c-1.6-1.5-3.7-2.6-5.6-2.9c0.3-0.8,0.7-1.7,1-2.5
				c2.2,0.4,4.8,1.8,7,3.8c5.3,5,3.2,9.4,0.1,12.4c-2,1.9-3.9,3.8-5.9,5.6c-1.4,1.3-2.6,2.7-3.5,3.9C387.4,96.8,386.6,95.9,385.7,95
				z M393.2,86.8c-3.2-3.3-7.5-6.2-10.3-3.1c-1.7,1.8-1.3,3.9,0.2,5.3c2.1,2,4.6,2,6.4,1.2c0.4-0.2,0.8-0.4,1.1-0.7
				C391.4,88.6,392.3,87.7,393.2,86.8z"/>
			<path class="st10" d="M413.8,109.8c-6.4,5.1-12.8,2.8-16.3-1.3c-3.9-4.6-3.9-10.9,1.1-15.6c5.3-5,12.1-4.2,16.6,0.8
				C419.8,99,419.1,105.6,413.8,109.8z M401.6,96c-3.5,3.2-4.3,7.7-1.7,10.8c2.5,3,7.2,3,11-0.2c2.9-2.4,5.3-7,1.9-10.9
				C409.4,91.8,404.7,93.2,401.6,96z"/>
		</g>
	</g>
</g>
</svg>
