<?xml version="1.0" encoding="utf-8"?>
<!-- Generator: Adobe Illustrator 25.0.0, SVG Export Plug-In . SVG Version: 6.00 Build 0)  -->
<svg version="1.1" id="Calque_1" xmlns="http://www.w3.org/2000/svg" xmlns:xlink="http://www.w3.org/1999/xlink" x="0px" y="0px"
	 viewBox="0 0 554.6 645.9" style="enable-background:new 0 0 554.6 645.9;" xml:space="preserve">
<style type="text/css">
	.st0{fill:#FDFDFD;}
	.st1{fill:#030303;}
	.st2{fill:#050505;}
	.st3{fill:#FBFBFB;}
	.st4{fill:#F0F0F0;}
</style>
<g>
	<g>
		<path class="st0" d="M296.2,91.4c84.6,0,169.2,0,253.9-0.1c3.5,0,4.5,0.5,4.5,4.3c-0.1,182-0.1,364.1,0,546.1
			c0,3.4-0.8,4.1-4.1,4.1c-182-0.1-364.1-0.1-546.1,0c-3.9,0-4.3-1-4.3-4.5c0.1-83.5,0.1-167.1,0.1-250.6c1.7,0.6,1,2.1,1.1,3.2
			c1.2,11.8,3,23.6,5.6,35.1C33.7,544.5,129.2,632,252.2,643.5c40.7,3.8,80.4-1.5,118.9-15.4c9.5-3.4,13.1-8.4,10.9-15
			c-2.3-7-8.3-8.9-17.9-5.5c-42.2,15.1-85.3,19.5-129.6,12.1c-39.3-6.6-75.1-21.6-107.3-45c-1.9-1.4-3-2.5-2.5-5.2
			c2.9-14.6,5.7-29.3,8.4-43.9c0.5-2.6,1.7-3.9,4.3-4.7c5.2-1.6,10-4.1,13.8-8c10.4-10.6,12.8-23,8.1-36.8c-2.4-6.9-3.3-13.6-1.7-21
			c2-8.9-0.4-17.4-5.8-25c-6.6-9.2-16.1-13.2-26.7-14.4c-12.3-1.5-22.9-5.9-32.4-14.1c-9.8-8.5-20.6-15.7-30.8-23.7
			c-4.5-3.6-9.1-4.5-14.6-2.5c-7.1,2.5-14.3,4.7-21.5,6.9c-1.3,0.4-3.3,2.2-3.6-0.9c-0.7-8.7-0.9-17.4,0.4-27.7
			c4.5,7.4,10.4,8.5,17.1,7.6c10.7-1.5,21.4-2.8,32-4.8c9.5-1.7,12.6-9.7,7.3-17.9c-2.7-4.2-5.7-8.3-8.5-12.5
			c-4-5.9-4.2-6.3,1.7-9.9c11-6.6,18.5-15.8,24.6-27c10.2-18.9,20.8-37.5,35.5-53.8c12.2-13.5,12.6-30.4,5.1-47.1
			c-3.9-8.7-10.5-15.2-18.3-20.8c45.6-35.1,96.6-53.1,154.5-54.5c-5.9,7.5-11.3,14.2-16.6,21c-1.8,2.4-4.1,3.8-6.9,4.8
			c-21.4,7.4-42.6,15.1-64.1,22.3c-5.6,1.9-9,5.3-11.1,10.7c-5.6,14-11.2,28-17.3,41.8c-2.7,6.2-2.1,11.2,1.9,16.5
			c8.6,11.5,16.8,23.4,25.1,35.1c0.9,1.3,2.7,2.5,0.7,4.5c-7.6,7.7-12.8,17.4-20.1,25.4c-12.6,13.8-22.4,28.7-24.3,48.1
			c-3.4,33.8,23.2,65.3,57.1,67c10.1,0.5,19.6-2.1,29.3-3.9c6.4-1.2,9.5,1.1,9.4,7.4c-0.2,10.5,3.4,19.3,10.8,26.7
			c5.2,5.2,6.2,11.5,4.5,18.5c-0.6,2.4-1.2,4.9-2,7.2c-3.7,10.2-3.7,20.4,0.3,30.5c6.3,15.8,12.6,31.7,19,47.5c1.7,4.1,4,8,6.7,11.6
			c5.1,6.7,11.7,10.1,20.1,9c17.8-2.3,31.1-12.8,39.3-27.4c5.8-10.4,10.4-21.7,16.7-32.1c3.6-6,6.2-12.4,11.2-17.5
			c10.1-10.3,13-22.4,8.2-36.2c-0.5-1.4-0.7-2.8-1.1-4.2c-2-6.2-0.5-11.6,3.4-16.6c5.9-7.8,13.5-14,20.3-20.9
			c5.6-5.7,10.9-11.6,14-19c4.3-10.2,0-19.8-10.4-23.3c-3.2-1.1-6.6-2.2-9.9-2.4c-10.7-0.4-16.4-6.7-20.8-15.5
			c-6.3-12.5-11.1-25.7-16.8-38.5c-4.7-10.4-10.8-19.4-22.1-23.8c-9.9-3.8-20.1-6.9-30.4-9.1c-6.7-1.4-13.2,1-17.5,6.1
			c-2.8,3.3-4.5,2.8-7.2,0.9c-1.9-1.3-3.9-2.6-6-3.7c-1.9-1-2.3-2.3-2.2-4.3c0.6-7.9-3.6-13-10.4-16c-6.9-3.1-14.2-3.5-21.7-3.1
			c-7.2,0.4-14.3,0.8-22.1,1.2c2.3-6.8,6.2-11.3,11.7-14.8c6.1-3.8,12.8-4.1,19.7-4.2c6.6-0.1,11.3-4.6,11.4-10.6
			c0.1-5.6-4.3-10.5-10.6-10.9c-14.4-1-27.5,2.5-38.6,12.1c-3.6,3.1-6.5,6.9-9.7,11c-5-7.1-9.6-13.7-14.5-20.2
			c-1.6-2.2-0.9-3.9,0-5.9c4.3-10.3,8.6-20.5,12.7-30.9c1.2-3,3-4.4,5.9-5.4c21-7.3,42-14.8,63-22.1c3.9-1.4,6.9-3.5,9.5-6.7
			c8.8-11.2,17.7-22.3,26.6-33.4c1.3-1.6,2.1-3.6,5.1-3c9,1.6,18.2,2.5,27.1,4.4c49,10.8,91.5,33.6,127,69.1
			c31.3,31.3,52.7,68.4,64.8,110.9c0.7,2.3,0.8,3.8-1.4,5.5c-6.9,5.5-11,12.7-11.9,22.8c-2.1-5.8-3.4-10.7-5.7-15.1
			c-14.8-28.7-25.8-41.7-55.6-38.4c-0.4,0-0.7,0-1.1,0c-12.6,0.6-19.4,12.3-13.4,23.4c1.6,3,0.9,4.2-1.4,6
			c-8.8,6.9-18.4,12.5-28.6,17c-2.9,1.3-4.1,1-5.6-2c-6.1-12.2-12.6-24.2-18.9-36.3c-0.8-1.6-1.7-3.2-1.4-5.1
			c1.4-9.3-2.7-15.9-9.8-21.3c-2.4-1.9-4.7-4-6.6-6.4c-8-9.7-19.4-12.6-30.6-15.6c-6.8-1.8-13.3,3.9-12.8,10.7
			c0.4,5.5,3.7,8.9,8.9,10.3c9.6,2.6,17.7,7.2,24.5,14.7c3.1,3.4,5.6,6.3,4.8,11.1c-0.4,2.7,0.6,5.3,1.9,7.7
			c8.8,16.7,17.4,33.4,26.2,50.1c4,7.5,8.3,9,16.5,6.2c19.8-6.9,37.5-17,53-31.2c5.5-5,8.5-10,4.9-17.5c3.4-0.6,6.6-1,8.8,1.7
			c6.7,8.1,14.6,15.2,17.6,26c2.8,10,6.9,19.6,10.5,29.4c3.8,10.2,12.2,12,20.1,4.5c5.8-5.6,11.4-11.4,14.1-20
			c3.7,20,2.6,54.3-2.4,78.7c-12.2,60.4-41.5,110.5-89.2,149.8c-1.8,1.5-3.6,3.1-5,4.9c-2.6,3.4-2.9,7.3-0.9,11.1
			c2,3.8,5.3,5.7,9.7,5.7c3.5,0,6.1-1.8,8.6-3.9c64.4-53.5,99.3-122.1,103-205.7c2.6-56.9-11.9-109.9-42.8-157.8
			c-45.6-70.9-110.6-112.3-193.7-125.8C309.8,93.3,302.8,93.8,296.2,91.4z M428.1,436c-5.6,0-9,2.6-10.7,6.9
			c-3.9,10.4-10.4,17.6-20.7,22.6c-10.4,5-14.2,14.9-12.7,26.3c0.7,5.1-0.2,9.5-1.9,14.1c-2.8,7.4-5.2,15.1-2.7,23.1
			c3.2,9.8,9.2,17.4,19.8,19.1c9.8,1.6,16.2-4.6,21-12.2c2.2-3.5,4-7.2,5.5-11c6.9-17.8,11.3-36.3,17-54.4c0.7-2.3,0.9-4.7,0.3-6.9
			c-1.7-6.8-3.4-13.6-5.5-20.3C436.1,438.5,432.5,436,428.1,436z M288.3,240.7c5.9,0,10.5-4.6,10.7-10.5c0.2-5.9-5.3-11.2-11.4-11.2
			c-5.6,0-10.6,4.9-10.7,10.6C276.7,235.6,282.1,240.7,288.3,240.7z M409.5,609.2c5.9-0.1,11-5.2,10.9-11c-0.1-5.7-5-10.6-10.7-10.6
			c-6.2,0-11.2,5.1-11,11.4C398.9,604.9,403.5,609.3,409.5,609.2z"/>
		<path class="st1" d="M296.2,91.4c6.6,2.3,13.6,1.9,20.4,3c83.1,13.4,148.1,54.9,193.7,125.8c30.8,47.9,45.3,100.9,42.8,157.8
			c-3.8,83.6-38.6,152.2-103,205.7c-2.5,2.1-5.1,3.9-8.6,3.9c-4.4,0-7.6-1.9-9.7-5.7c-2.1-3.9-1.8-7.7,0.9-11.1
			c1.4-1.8,3.2-3.4,5-4.9c47.7-39.3,77-89.4,89.2-149.8c4.9-24.4,6-58.6,2.4-78.7c-2.7,8.7-8.2,14.5-14.1,20
			c-7.9,7.6-16.3,5.7-20.1-4.5c-3.6-9.8-7.7-19.4-10.5-29.4c-3-10.8-10.9-17.9-17.6-26c-2.2-2.7-5.4-2.3-8.8-1.7
			c3.6,7.4,0.5,12.5-4.9,17.5c-15.5,14.2-33.3,24.3-53,31.2c-8.1,2.8-12.5,1.3-16.5-6.2c-8.8-16.7-17.5-33.4-26.2-50.1
			c-1.3-2.5-2.3-5-1.9-7.7c0.7-4.8-1.8-7.7-4.8-11.1c-6.8-7.5-14.9-12.1-24.5-14.7c-5.2-1.4-8.5-4.8-8.9-10.3
			c-0.5-6.9,6-12.6,12.8-10.7c11.2,3,22.7,5.9,30.6,15.6c1.9,2.4,4.2,4.5,6.6,6.4c7,5.4,11.2,12.1,9.8,21.3
			c-0.3,1.9,0.6,3.5,1.4,5.1c6.3,12.1,12.8,24.1,18.9,36.3c1.5,3,2.7,3.3,5.6,2c10.2-4.5,19.8-10.1,28.6-17c2.3-1.8,3-3,1.4-6
			c-6-11.1,0.9-22.9,13.4-23.4c0.4,0,0.7,0,1.1,0c29.8-3.3,40.8,9.7,55.6,38.4c2.3,4.4,3.5,9.3,5.7,15.1
			c0.9-10.1,5.1-17.3,11.9-22.8c2.1-1.7,2-3.3,1.4-5.5c-12.1-42.6-33.6-79.6-64.8-110.9c-35.5-35.6-78-58.3-127-69.1
			c-8.9-2-18.1-2.8-27.1-4.4c-2.9-0.5-3.8,1.4-5.1,3c-8.9,11.1-17.8,22.2-26.6,33.4c-2.5,3.2-5.6,5.4-9.5,6.7
			c-21,7.3-42,14.8-63,22.1c-2.9,1-4.8,2.4-5.9,5.4c-4,10.4-8.3,20.6-12.7,30.9c-0.9,2.1-1.6,3.8,0,5.9c4.8,6.5,9.4,13.1,14.5,20.2
			c3.2-4.1,6.1-7.9,9.7-11c11.1-9.6,24.2-13.1,38.6-12.1c6.2,0.4,10.7,5.3,10.6,10.9c-0.1,5.9-4.8,10.5-11.4,10.6
			c-6.9,0.1-13.6,0.4-19.7,4.2c-5.5,3.4-9.5,8-11.7,14.8c7.8-0.4,15-0.8,22.1-1.2c7.4-0.4,14.8-0.1,21.7,3.1
			c6.8,3.1,10.9,8.2,10.4,16c-0.1,2.1,0.3,3.3,2.2,4.3c2.1,1.1,4,2.4,6,3.7c2.7,1.9,4.4,2.4,7.2-0.9c4.3-5.1,10.9-7.6,17.5-6.1
			c10.3,2.2,20.5,5.3,30.4,9.1c11.3,4.4,17.4,13.4,22.1,23.8c5.7,12.8,10.5,25.9,16.8,38.5c4.4,8.7,10.2,15.1,20.8,15.5
			c3.3,0.1,6.7,1.3,9.9,2.4c10.5,3.5,14.7,13.1,10.4,23.3c-3.1,7.4-8.4,13.3-14,19c-6.8,6.9-14.3,13.1-20.3,20.9
			c-3.9,5.1-5.4,10.4-3.4,16.6c0.4,1.4,0.7,2.8,1.1,4.2c4.8,13.8,1.8,25.9-8.2,36.2c-5,5.1-7.7,11.5-11.2,17.5
			c-6.2,10.4-10.8,21.7-16.7,32.1c-8.2,14.6-21.5,25.1-39.3,27.4c-8.4,1.1-15-2.4-20.1-9c-2.7-3.6-5-7.5-6.7-11.6
			c-6.4-15.8-12.7-31.6-19-47.5c-4-10.1-4-20.3-0.3-30.5c0.9-2.4,1.4-4.8,2-7.2c1.7-6.9,0.7-13.3-4.5-18.5
			c-7.4-7.4-10.9-16.2-10.8-26.7c0.1-6.3-3-8.5-9.4-7.4c-9.7,1.8-19.2,4.4-29.3,3.9c-33.9-1.6-60.5-33.1-57.1-67
			c2-19.4,11.7-34.3,24.3-48.1c7.3-8,12.5-17.7,20.1-25.4c2-2,0.2-3.2-0.7-4.5c-8.3-11.7-16.5-23.6-25.1-35.1
			c-4-5.4-4.6-10.3-1.9-16.5c6.1-13.8,11.7-27.8,17.3-41.8c2.1-5.4,5.5-8.8,11.1-10.7c21.4-7.3,42.7-14.9,64.1-22.3
			c2.8-1,5.1-2.4,6.9-4.8c5.2-6.8,10.6-13.5,16.6-21c-58,1.3-108.9,19.4-154.5,54.5c7.8,5.7,14.4,12.1,18.3,20.8
			c7.5,16.7,7.1,33.6-5.1,47.1c-14.7,16.3-25.3,34.9-35.5,53.8c-6.1,11.2-13.7,20.4-24.6,27c-6,3.6-5.7,4-1.7,9.9
			c2.8,4.2,5.8,8.3,8.5,12.5c5.3,8.1,2.2,16.2-7.3,17.9c-10.6,1.9-21.3,3.2-32,4.8c-6.6,0.9-12.6-0.2-17.1-7.6
			c-1.2,10.2-1,19-0.4,27.7c0.2,3,2.3,1.3,3.6,0.9c7.2-2.3,14.4-4.4,21.5-6.9c5.5-2,10-1.1,14.6,2.5c10.2,8,21,15.3,30.8,23.7
			c9.5,8.2,20,12.7,32.4,14.1c10.6,1.3,20.1,5.2,26.7,14.4c5.4,7.6,7.8,16.1,5.8,25c-1.6,7.4-0.7,14.1,1.7,21
			c4.8,13.8,2.4,26.2-8.1,36.8c-3.9,3.9-8.7,6.4-13.8,8c-2.6,0.8-3.8,2-4.3,4.7c-2.7,14.7-5.5,29.3-8.4,43.9
			c-0.5,2.7,0.5,3.8,2.5,5.2c32.3,23.4,68,38.4,107.3,45c44.3,7.4,87.4,3,129.6-12.1c9.6-3.5,15.7-1.5,17.9,5.5
			c2.2,6.6-1.4,11.6-10.9,15c-38.5,13.9-78.2,19.2-118.9,15.4c-123-11.6-218.5-99-245.3-214.4c-2.7-11.6-4.4-23.3-5.6-35.1
			c-0.1-1.1,0.5-2.6-1.1-3.2c0-14.8,0-29.5,0-44.3c1.7-0.6,1-2.1,1.2-3.2C7,287.1,26.7,236.5,62.8,193
			c45.2-54.5,103.1-87.2,173.1-98.5c6.1-1,12.4-0.3,18.2-3C268.1,91.4,282.2,91.4,296.2,91.4z M385.9,386.9
			c-21.2-4-28-8.9-37.7-26.7c-5-9.3-8.9-19.2-13-29c-9.5-23-9.6-22.9-33.3-29.4c-2.9-0.8-4.5-0.4-6.4,1.9
			c-5.2,6.2-11.7,8.5-19.8,6.3c-12.6-3.4-22.5-11.7-33.1-18.7c-2.5-1.6-3.5-4.8-3-7.7c0.5-3.3-0.6-4-3.6-3.8
			c-8.8,0.7-17.6,1.2-26.4,1.9c-4.2,0.4-8,1.8-10.7,5.4c-8.4,11.7-17.4,22.9-26.7,33.9c-2,2.3-3.4,5.1-4.8,7.8
			c-12.7,25.1,0.5,54,27.3,59.4c8.7,1.8,17.1-0.5,25.6-2.4c22.4-4.9,37,6,38.5,28.7c0.3,4.6,1.7,8.2,4.9,11.5
			c5.1,5.2,8.3,11.5,10,18.7c2.3,9.7,0.3,19-2.9,28c-2.3,6.4-1.9,12.4,0.5,18.4c5.9,14.8,12,29.6,18.1,44.3c0.8,2,2,3.8,3,5.7
			c1.1,2.2,2.9,2.8,4.9,1.9c8.2-3.7,17-8.4,19.9-16.5c3.8-10.9,8.5-20.8,15.7-29.7c0.6-0.8,0.9-1.9,1.3-3c2.3-7,6.1-13.1,11.5-18
			c6.2-5.7,8-11.8,5-20.2c-5.6-15.7-1.7-29.8,9.4-41.9c5.6-6.1,11.7-11.7,17.5-17.6C380.2,393.3,382.7,390.4,385.9,386.9z
			 M105.2,556.8c2.4-12.4,5.4-23.7,6.6-35.3c1.2-11.9,6.4-18.4,18.2-21c8.7-1.9,11.8-8.6,8.9-17.1c-3.6-10.4-5.6-20.6-2.7-31.6
			c1.8-6.7-2.3-12-9.1-13.6c-5.4-1.3-10.9-2.4-16.4-3.2c-8.7-1.3-16.5-4.3-23.2-10.2c-5.7-5-11.9-9.2-18-13.8
			c-6.2-4.6-11.9-11.9-18.7-13c-6.8-1.1-14.5,4-22,6.1c-3.5,1-4.4,2.5-3.7,6.1c4.5,25.1,12,49.1,23.5,71.9
			C63,510,81.4,534.8,105.2,556.8z M52.3,337.8c-3-4.4-5.5-8.1-8-11.9c-5.1-7.7-4.2-13,3.2-18.4c6.2-4.6,12.5-9.1,18.9-13.4
			c3.4-2.3,5.7-5.2,7.8-8.6c12.9-21,22.9-43.7,40.4-62.1c11.8-12.3,5.7-32-10-38.9c-2.1-0.9-3.6-1.1-5.6,0.8
			c-36.2,36-59.8,78.9-71.3,128.7c-2.5,10.7-0.9,17.7,8.2,23.3c1.5,0.9,2.3,2.7,4.6,2.3C44.1,339,47.9,338.5,52.3,337.8z"/>
		<path class="st0" d="M254.1,91.4c-5.8,2.7-12.1,2.1-18.2,3c-70,11.3-127.9,44-173.1,98.5C26.7,236.5,7,287.1,1.3,343.2
			c-0.1,1.1,0.6,2.6-1.2,3.2c0-83.5,0-167-0.1-250.4c0-3.9,0.8-4.7,4.7-4.7C87.8,91.4,170.9,91.4,254.1,91.4z"/>
		<path class="st1" d="M428.1,436c4.4,0.1,8.1,2.5,9.6,7.3c2.1,6.7,3.8,13.5,5.5,20.3c0.6,2.3,0.4,4.7-0.3,6.9
			c-5.7,18.1-10.2,36.6-17,54.4c-1.5,3.8-3.3,7.6-5.5,11c-4.8,7.7-11.1,13.8-21,12.2c-10.6-1.7-16.6-9.3-19.8-19.1
			c-2.6-8-0.2-15.7,2.7-23.1c1.8-4.6,2.6-9.1,1.9-14.1c-1.5-11.4,2.2-21.3,12.7-26.3c10.3-4.9,16.8-12.2,20.7-22.6
			C419,438.6,422.5,436,428.1,436z M417.9,478.4c-3.7,1.9-6,3.1-8.4,4.3c-3,1.5-4.9,3.7-4.1,7.3c2.1,9-0.5,17.3-3.8,25.6
			c-1.2,2.9-2.7,6,0,9.7C409.6,510.7,412.6,494.9,417.9,478.4z"/>
		<path class="st2" d="M288.3,240.7c-6.3,0-11.6-5.1-11.5-11c0.1-5.7,5.1-10.6,10.7-10.6c6.2,0,11.6,5.3,11.4,11.2
			C298.9,236.2,294.2,240.7,288.3,240.7z"/>
		<path class="st2" d="M409.5,609.2c-6,0.1-10.6-4.2-10.8-10.2c-0.2-6.2,4.8-11.4,11-11.4c5.7,0,10.6,4.9,10.7,10.6
			C420.5,604,415.5,609.1,409.5,609.2z"/>
		<path class="st0" d="M385.9,386.9c-3.2,3.5-5.7,6.5-8.4,9.2c-5.8,5.9-11.9,11.5-17.5,17.6c-11.1,12.1-15,26.2-9.4,41.9
			c3,8.4,1.2,14.5-5,20.2c-5.4,4.9-9.2,11-11.5,18c-0.3,1-0.6,2.2-1.3,3c-7.2,8.9-11.9,18.8-15.7,29.7c-2.8,8.1-11.7,12.8-19.9,16.5
			c-2,0.9-3.8,0.4-4.9-1.9c-0.9-1.9-2.1-3.8-3-5.7c-6.1-14.8-12.1-29.5-18.1-44.3c-2.4-6-2.8-12-0.5-18.4c3.2-9,5.2-18.3,2.9-28
			c-1.7-7.2-4.9-13.5-10-18.7c-3.2-3.3-4.6-6.9-4.9-11.5c-1.5-22.7-16.1-33.5-38.5-28.7c-8.4,1.8-16.8,4.1-25.6,2.4
			c-26.7-5.4-40-34.3-27.3-59.4c1.4-2.7,2.8-5.5,4.8-7.8c9.3-11,18.3-22.2,26.7-33.9c2.7-3.7,6.5-5.1,10.7-5.4
			c8.8-0.7,17.6-1.2,26.4-1.9c3-0.2,4.2,0.5,3.6,3.8c-0.5,2.9,0.5,6.1,3,7.7c10.6,7,20.5,15.2,33.1,18.7c8.1,2.2,14.6-0.1,19.8-6.3
			c1.9-2.3,3.5-2.7,6.4-1.9c23.8,6.5,23.8,6.5,33.3,29.4c4.1,9.8,7.9,19.7,13,29C357.9,378,364.7,382.9,385.9,386.9z"/>
		<path class="st0" d="M105.2,556.8C81.4,534.8,63,510,48.8,482c-11.5-22.7-19.1-46.8-23.5-71.9c-0.6-3.6,0.2-5.1,3.7-6.1
			c7.4-2,15.2-7.2,22-6.1c6.8,1.1,12.6,8.4,18.7,13c6,4.5,12.3,8.8,18,13.8c6.8,5.9,14.5,9,23.2,10.2c5.5,0.8,11,1.9,16.4,3.2
			c6.8,1.6,10.9,6.9,9.1,13.6c-3,11.1-0.9,21.2,2.7,31.6c2.9,8.4-0.2,15.2-8.9,17.1c-11.8,2.6-17,9.1-18.2,21
			C110.7,533,107.6,544.4,105.2,556.8z"/>
		<path class="st3" d="M52.3,337.8c-4.4,0.7-8.2,1.1-11.9,1.8c-2.2,0.4-3.1-1.4-4.6-2.3c-9.1-5.6-10.7-12.5-8.2-23.3
			c11.6-49.8,35.1-92.7,71.3-128.7c2-2,3.4-1.8,5.6-0.8c15.7,6.9,21.7,26.6,10,38.9c-17.5,18.3-27.5,41-40.4,62.1
			c-2.1,3.4-4.4,6.4-7.8,8.6c-6.4,4.3-12.7,8.9-18.9,13.4c-7.4,5.4-8.3,10.7-3.2,18.4C46.8,329.7,49.3,333.4,52.3,337.8z"/>
		<path class="st4" d="M417.9,478.4c-5.4,16.5-8.3,32.3-16.3,46.8c-2.7-3.7-1.1-6.8,0-9.7c3.3-8.2,5.9-16.5,3.8-25.6
			c-0.8-3.6,1-5.8,4.1-7.3C411.9,481.5,414.3,480.3,417.9,478.4z"/>
	</g>
	<g>
		<g>
			<path d="M78.4,114.4c-1.5,2.6-5.1,6.9-10.5,11.4c-12.5,10.3-27.6,13-39.5,1.4c-11.3-11-8.7-29.2,7.6-42.8
				c6.5-5.4,11.6-7.4,13.9-8.1c0.5,1.8,1,3.7,1.6,5.5c-3.3,1-7.5,3.1-11.8,6.6c-12.2,10-14.5,23-5.3,32.5c8.6,8.9,20.1,8.7,31.1-0.4
				c3.6-3,6.8-6.5,8.4-9.4C75.5,112.3,77,113.3,78.4,114.4z"/>
			<path d="M105.7,97.9c-1-1.2-1.9-2.4-2.9-3.6c-0.1,0-0.1,0.1-0.2,0.1c-0.5,3.6-2.9,8.1-7.7,11.3c-6.9,4.6-13.3,3-16.4-1.3
				c-5.2-7-0.4-16.8,14.1-25.6c-0.1-0.2-0.3-0.4-0.4-0.6c-1.5-2.5-5.3-6.7-13-1.7c-3.5,2.3-6.6,5.7-8.2,8.8c-1.3-0.8-2.7-1.7-4-2.5
				c1.9-3.8,5.8-8,10.6-11.1c11.9-7.6,18.7-2.5,22.2,3.8c2.3,3.9,4.5,7.8,6.8,11.8c1.6,2.7,3.3,5.3,4.9,7.2
				C109.6,95.6,107.6,96.7,105.7,97.9z M95.1,82.7C87.7,87,80.3,93.6,84.3,99.4c2.4,3.5,6.3,3.3,9.5,1.2c4.5-3,5.9-7.3,5.3-10.5
				c-0.1-0.7-0.4-1.4-0.7-2C97.3,86.2,96.2,84.4,95.1,82.7z"/>
			<path d="M146.8,75.6c-1.4,1.6-4.8,4.3-9.7,6.6c-10.9,5-21.4,2.4-26.8-7.3c-5.4-9.7-0.9-21.6,12.6-27.8c4.4-2,8.7-2.8,11.1-2.8
				c0.1,1.8,0.2,3.6,0.3,5.4c-2.1-0.1-5.2,0.3-9.2,2.2c-9.3,4.3-11.4,12.3-7.9,19c3.9,7.5,11.6,9.3,19,5.9c3.8-1.7,6-3.7,7.6-5.3
				C144.8,72.8,145.8,74.2,146.8,75.6z"/>
			<path d="M176.2,66.4c-0.6-1.4-1.3-2.8-1.9-4.2c-0.1,0-0.2,0-0.2,0.1c-1.3,3.4-4.6,7.1-10,9c-7.6,2.7-13.3-0.5-15.3-5.4
				c-3.3-8.1,3.5-16.2,19.4-21.1c-0.1-0.2-0.1-0.5-0.2-0.7c-0.9-2.8-3.4-7.8-12-4.9c-3.9,1.3-7.6,3.8-9.8,6.4
				c-1.1-1.1-2.2-2.3-3.3-3.4c2.7-3.1,7.3-6.2,12.7-8c13-4.3,18.3,2.3,20.3,9.2c1.2,4.4,2.5,8.7,3.7,13.1c0.9,3,1.9,5.9,3,8.2
				C180.4,65.2,178.3,65.8,176.2,66.4z M169.7,49.1c-8.1,2.3-16.6,6.8-14.1,13.4c1.5,4,5.2,4.8,8.7,3.6c5-1.7,7.2-5.5,7.5-8.8
				c0-0.7,0-1.5-0.2-2.1C170.9,53.1,170.3,51.1,169.7,49.1z"/>
			<path d="M226.1,36.9c1.6,13.3-7.7,20.4-17,22.2c-10.4,2-20.2-2.9-23.1-14c-3.1-11.7,4.5-21.1,16.7-23.4
				C215.3,19.4,224.8,25.9,226.1,36.9z M193.4,43.1c1.8,7.7,8.1,12.4,15.1,11.1c6.8-1.3,11.1-7.9,9.9-16c-0.9-6.1-5.7-13.3-15-11.6
				C194.1,28.4,191.8,36.5,193.4,43.1z"/>
			<path d="M292.3,0.3c-1,14.6-1.9,29.2-2.9,43.8c-0.2,3.2-0.4,6.9-0.3,9.4c-2.1-0.1-4.3-0.3-6.4-0.4c0-2.1,0-4.2,0-6.3
				c-0.1,0-0.1,0-0.2,0c-2.4,3.9-7.3,6.8-13.8,6.8c-9.4,0-17.1-7-17.8-18c-0.8-12,7.9-20,18.8-19.9c6.8,0,11.3,2.9,13.1,5.9
				c0.1,0,0.1,0,0.2,0c0.3-7.2,0.6-14.4,0.9-21.7C286.7-0.1,289.5,0.1,292.3,0.3z M282.5,31.5c0-0.8,0-2-0.2-2.8
				c-0.9-4.2-5.1-7.9-11.1-7.9c-8.2-0.1-12.9,6.1-12.6,14.1c0.3,7.4,4.4,13.2,12.2,13.3c4.9,0,9.4-2.7,11-7.6
				c0.3-0.9,0.4-1.8,0.5-2.8C282.4,35.7,282.5,33.6,282.5,31.5z"/>
			<path d="M335.5,49.9c-0.8,3.7-1.4,6.9-1.7,9.8c-2.1-0.4-4.2-0.9-6.3-1.3c0.2-2,0.5-3.9,0.7-5.9c-0.1,0-0.1,0-0.2,0
				c-2.5,2.5-7.2,5.5-14.1,4.5c-6.1-0.9-13.1-4.8-11.9-17.5c0.7-7,1.5-14.1,2.2-21.1c2.7,0.3,5.3,0.6,8,0.9
				c-0.8,6.6-1.7,13.3-2.5,19.9c-0.8,6.9,0.9,11.7,7.4,12.7c4.8,0.7,8.7-1.7,10.6-4.3c0.6-0.9,1.1-2,1.3-3.2
				c1.4-7.3,2.7-14.6,4.1-21.9c2.6,0.5,5.3,1,7.9,1.6C339.1,32.6,337.3,41.2,335.5,49.9z"/>
			<path d="M351.2,38c1-4.1,1.9-7.7,2.4-11.1c2.3,0.6,4.6,1.2,6.8,1.8c-0.5,2.3-1.1,4.6-1.6,6.9c0.1,0,0.2,0.1,0.3,0.1
				c3.2-4.2,8.7-5.8,13.9-4.2c0.9,0.3,1.5,0.5,2.1,0.9c-0.6,2-1.3,4-1.9,5.9c-0.7-0.4-1.5-0.7-2.5-1c-5.4-1.7-10.2,0.7-12.5,5.2
				c-0.4,0.8-0.9,1.8-1.2,2.9c-1.7,6.2-3.4,12.4-5.2,18.7c-2.3-0.6-4.6-1.2-6.9-1.8C347.1,54.2,349.2,46.1,351.2,38z"/>
			<path d="M391.6,77.9c0.4-1.5,0.8-3,1.3-4.4c-0.1,0-0.2-0.1-0.2-0.1c-3.2,1.7-8.1,2.4-13.5,0.4c-7.5-2.8-9.8-9-8.2-14
				c2.7-8.3,13-10.2,28.5-3.7c0.1-0.2,0.2-0.5,0.3-0.7c1.2-2.7,2.4-8.2-6.1-11.5c-3.8-1.5-8.2-2-11.7-1.4c-0.1-1.6-0.2-3.1-0.3-4.7
				c4.1-0.7,9.6,0,14.8,2c12.8,5.1,12.6,13.6,9.6,20.2c-1.9,4.1-3.7,8.3-5.6,12.4c-1.3,2.9-2.4,5.7-3,8.2
				C395.6,79.6,393.6,78.7,391.6,77.9z M397.8,60.4c-7.7-3.5-17.2-5.5-19.5,1.2c-1.4,4,0.9,7,4.4,8.4c4.9,1.9,9.2,0.4,11.5-1.9
				c0.5-0.5,0.9-1.1,1.2-1.8C396.2,64.3,397,62.3,397.8,60.4z"/>
			<path d="M407.5,85.2c1.2-2.1,3-5.4,4.5-8.3c6.5-13.1,13-26.2,19.5-39.3c2.5,1.3,5.1,2.5,7.6,3.9c-3.5,6.7-7.1,13.5-10.6,20.2
				c0.1,0,0.1,0.1,0.2,0.1c4.4-2.3,10.3-2.1,16.6,1.6c9.8,5.7,12.4,16.6,6.2,25.6c-7.2,10.8-18.4,11.1-26.2,6.6
				c-5.1-2.9-8.2-6.9-8.7-12.6c-0.1,0-0.2-0.1-0.2-0.1c-1,1.7-2,3.4-3.1,5.2C411.2,87.1,409.4,86.1,407.5,85.2z M421,75.7
				c-0.4,0.7-0.6,1.5-0.8,2.3c-0.8,4.7,1.5,9.5,6.2,12.2c6.8,3.9,13.7,1.7,18.2-5.4c3.9-6.1,3.3-13.9-4.3-18.3
				c-4.8-2.8-10.9-2.5-14.6,1.2c-0.5,0.6-1.2,1.3-1.7,2.2C423,71.9,422,73.8,421,75.7z"/>
			<path d="M479.5,66.2c2.4,1.7,4.8,3.4,7.1,5.1c-10.5,14.3-21.1,28.6-31.6,42.8c-2-1.5-4-3-6.1-4.4
				C459.1,95.3,469.3,80.8,479.5,66.2z"/>
			<path d="M479.1,111.6c-5.5,7-2.7,14.1,3,19.3c4.1,3.7,7.1,5.5,10,6.8c-0.8,1.4-1.6,2.9-2.4,4.3c-2.7-1.2-6.8-3.6-11.8-8
				c-9.5-8.6-11.1-18.9-4.4-27.6c6.7-8.6,18.6-10.5,28.9-1.2c11.5,10.4,6.8,20.9,2.1,25.6c-1,1-1.8,1.6-2.4,2
				C494.8,125.2,487.1,118.2,479.1,111.6z M500.1,123.9c3-2.9,5.9-9.3-1.2-15.7c-6.4-5.7-13.2-3.3-16.6-0.1
				C488.3,113,494.3,118.3,500.1,123.9z"/>
		</g>
	</g>
</g>
</svg>
