<?xml version="1.0" encoding="utf-8"?>
<!-- Generator: Adobe Illustrator 25.0.0, SVG Export Plug-In . SVG Version: 6.00 Build 0)  -->
<svg version="1.1" id="Calque_1" xmlns="http://www.w3.org/2000/svg" xmlns:xlink="http://www.w3.org/1999/xlink" x="0px" y="0px"
	 viewBox="0 0 169 95.1" style="enable-background:new 0 0 169 95.1;" xml:space="preserve">
<style type="text/css">
	.st0{fill:#1A2091;}
	.st1{fill:#4F4EA5;}
	.st2{fill:#27296E;}
	.st3{fill:#1D2291;}
	.st4{fill:#1E2390;}
	.st5{fill:#212590;}
	.st6{fill:#25298F;}
	.st7{fill:#232790;}
	.st8{fill:#1E2391;}
	.st9{fill:#272C90;}
</style>
<g>
	<path class="st0" d="M84.5,95.1c-28,0-55.9,0-83.9,0C0.1,95.1,0,95,0,94.4C0,63.2,0,31.9,0,0.7C0,0.1,0.1,0,0.6,0
		c55.9,0,111.9,0,167.8,0c0.5,0,0.6,0.1,0.6,0.6c0,31.3,0,62.6,0,93.9c0,0.5-0.1,0.6-0.6,0.6C140.5,95.1,112.5,95.1,84.5,95.1z
		 M97.1,12.4L97.1,12.4L97.1,12.4c-0.2,0.2-0.2,0.5-0.2,0.7c0,1.4,0,2.8,0,4.1c0,0.3,0,0.6-0.2,0.9c-0.8,0.3-1.1,0.1-1.1-0.7
		c0-2,0-4,0-6.1c0-0.7,0-1.3-0.1-2c-0.3-1.5-2.1-2.2-3.3-1.3c-0.1,0.1-0.3,0.2-0.4,0.3c-0.2-0.1-0.1-0.3-0.1-0.4
		c-0.1-0.6-0.4-0.9-1-0.9c-0.6,0-0.9,0.4-1,0.9c0,0.3-0.1,0.5-0.1,0.8c0,2.1,0,4.3,0,6.4c0,0.6-0.4,0.9-0.8,1
		c-0.4,0.1-0.7-0.1-0.8-0.6c0-2.6,0-5.1,0-7.7c0-0.2,0-0.4-0.1-0.5c-0.2-0.6-0.6-1-1.2-0.8c-0.7,0.1-0.8,0.7-0.9,1.2
		c0,0.3,0,0.5,0,0.8c0,2.1,0,4.2,0,6.3c0,0.5-0.4,1-0.9,1C84.2,16,84,15.6,84,15c0-0.3,0-0.5,0-0.8c0-3.1,0-6.2,0-9.4
		c0-0.8,0-1.7,0-2.5c0-0.5-0.1-1-0.7-1.2c-0.6-0.1-1.1,0.1-1.3,0.7c-0.4,0.2-0.3,0.5-0.3,0.8c0,3.9,0,7.8,0,11.8
		c0,0.6-0.1,1.2-0.6,1.6c-0.7,0.1-1-0.2-1-1.1c0-2.2,0-4.4,0-6.5c0-0.4,0-0.7-0.1-1.1c-0.1-0.4-0.3-0.6-0.7-0.7
		c-0.4-0.1-0.7,0-1,0.4c-0.1,0.1-0.2,0.3-0.3,0.4c-1.8-1.2-3.8-0.1-4.1,1.9c0,0.3-0.1,0.6-0.1,0.9c0,1.6-0.1,3.2,0,4.8
		c0.1,1.1-0.6,1.7-1.3,2.3c-0.6,0.4-1.2,0.2-1.3-0.6c-0.1-0.3,0-0.7,0-1.1c0.1-1.1,0.3-2.3,0.7-3.4c0.3-1.1,0.6-2.2,0.9-3.2
		c0.1-0.5,0-1-0.5-1.2c-0.6-0.2-1,0.1-1.3,0.5c-0.1,0.2-0.2,0.4-0.4,0.5c-0.3,0.3-0.6,0.4-1,0.4c-0.4-0.1-0.2-0.5-0.3-0.7
		c-0.1-0.1-0.1-0.3-0.1-0.4c-0.2-0.5-0.5-0.9-1.1-0.8c-0.6,0-1,0.4-1.1,0.9c-0.2,0.8-0.2,1.6,0.5,2.2c0.3,0.3,0.3,0.5,0.1,0.8
		c-0.1,0.2-0.2,0.5-0.5,0.6c-0.3-0.5-0.5-1-0.9-1.3c-0.9-0.6-2.3-0.2-3.1,0.8c-0.6,0.8-0.7,0.8-1.7,0.8c-1.2-0.1-2.9,1.5-2.9,2.7
		c0,0.2,0,0.5,0.3,0.5c0.3,0.1,0.5-0.1,0.6-0.3c0.3-0.4,0.5-0.8,1-0.6c0.6,0.2,0.5,0.7,0.6,1.2c0,0.2,0,0.4,0,0.5c0,3.2,0,6.5,0,9.7
		c0,0.4,0,0.7,0.1,1.1c0.2,0.4,0.4,0.6,0.8,0.6c0.4,0,0.7-0.2,0.9-0.5c0.2-0.3,0.2-0.7,0.2-1.1c0-1.1,0-2.3,0-3.4
		c1.5,0.8,2.9,0.3,3.6-1.1c0.3-0.6,0.5-1.3,0.5-2c0-1.7,0-3.3,0-5c0-0.5,0.1-0.9,0.5-1.2c0.5-0.3,0.8-0.8,1-1.3
		c0.2-0.7,0.7-1,1.4-0.9c-0.4,1.4-0.8,2.8-1,4.2c-0.2,1.1-0.3,2.2,0,3.3c0.3,1.1,1.1,1.5,2.2,1.1c0.6-0.2,1.2-0.6,1.6-1.1
		c0.4-0.4,0.8-0.9,1.3-1.3c1.2,1.4,2.5,1.3,4-0.3c1.2,1.1,2.4,1.1,3.4,0c0.3-0.3,0.5-0.3,0.7,0c0.2,0.2,0.5,0.4,0.8,0.5
		c1.1,0.3,1.9-0.1,2.6-0.9c0.3,0.8,0.9,1.2,1.7,1.2c0.8,0.1,1.4-0.3,2-0.8c0.3,1,0.7,1.4,1.4,1.3c0.6-0.1,0.8-0.5,0.8-1.5
		c0-1.7,0-3.3,0-5c0-0.4,0-0.8,0-1.2c0.1-0.5,0.4-0.9,0.9-0.9c0.6,0,0.8,0.4,0.8,0.8c0,0.3,0,0.5,0,0.8c0,2.1,0,4.3,0,6.4
		c0,1.3,0.7,2,2,2.1c0.6,0,1.1-0.3,1.7-0.5c0,0.1,0.1,0.1,0.1,0.2c0.3,1.4,1.3,2.3,2.7,2.5c1.4,0.2,2.3-0.5,3.1-1.5
		c0.6-0.9,1.1-1.9,1.5-2.8c0.2-0.4,0.4-0.8,0.6-1.3c0.2,0.6,0.3,0.9,0.4,1.4c0.4,1.7,0.5,3.4,0.3,5.1c0,0.3-0.1,0.7-0.5,0.7
		c-0.5,0-0.6-0.4-0.6-0.7c-0.1-0.3-0.1-0.7-0.1-1c-0.1-0.4-0.3-0.8-0.8-0.8c-0.5,0-0.8,0.3-1,0.7c-0.4,1.4,0.4,3.2,1.7,3.8
		c1.3,0.6,2.4,0.2,3-1.1c0.4-0.8,0.5-1.7,0.5-2.6c0.1-2.8-0.6-5.4-1.5-8c-0.1-0.4-0.1-0.7,0-1.1c0.2-0.6,0.3-1.2,0.1-1.9
		c-0.3-0.9-1.3-1.1-1.9-0.4c-0.2,0.3-0.4,0.6-0.4,1c-0.1,0.8,0,1.6,0.1,2.4c0,0.2,0.1,0.4,0,0.6c-0.6,1.4-1.1,2.9-1.9,4.2
		c-0.3,0.6-0.7,1.1-1.3,1.5c-0.8,0.5-1.7,0.1-1.9-0.9c-0.1-0.8-0.2-1.6,0.8-2c0.3-0.1,0.5-0.3,0.7-0.5c1.7-1,2.2-2.6,2-4.5
		c-0.2-1.5-1.4-2.5-3.2-2.7c-1.4-0.1-2.1,0.5-2.5,2.2C97.1,12.2,97.1,12.3,97.1,12.4z M77.4,83c0,2.6,0,5.1,0,7.7c0,0.2,0,0.3,0,0.4
		c0.1,0.1,0.1-0.1,0.1-0.1c0,0.2,0.1,0.3,0.1,0.4c0.1,0.6,0.5,0.9,1.1,0.9c0.6,0,1-0.4,1.1-1c0.1-0.3,0.1-0.6,0.1-0.9
		c0-2.1,0-4.2,0-6.3c0-0.5,0.5-0.9,1-1c0.5,0,0.7,0.3,0.8,0.8c0,0.2,0,0.4,0,0.7c0,1.9,0,3.8,0,5.7c0,1.1,0.5,1.8,1.5,2.1
		c1,0.3,1.8-0.1,2.6-0.8c0.1-0.1,0.1-0.4,0.5-0.1c1.3,1.2,2.6,1,3.8-0.3c0.2-0.3,0.4-0.4,0.7-0.1c0.3,0.4,0.8,0.5,1.4,0.5
		c0.9,0,1.6-0.5,2.1-1.2c0.1-0.2,0.2-0.4,0.5-0.2c0.9,0.6,1.7,0.6,2.6-0.1c0.6-0.4,0.9-1,1.3-1.5c1.4,1,2.7,0.7,3.6-0.7
		c0.1-0.2,0.2-0.3,0.3-0.5c0.1-0.3,0.2-0.3,0.5-0.2c1.6,0.7,3.4-0.4,3.6-2.1c0-0.3,0.2-0.8-0.3-0.9c-0.4-0.1-0.5,0.3-0.7,0.5
		c-0.1,0.1-0.1,0.1-0.2,0.2c-0.2,0.2-0.4,0.3-0.7,0.2c-0.3-0.1-0.4-0.3-0.4-0.6c0-0.3,0-0.5,0-0.8c0-2.3,0-4.7,0-7
		c0-0.3,0-0.5,0-0.8c-0.1-0.5-0.4-0.9-1-0.9c-0.6,0-1,0.2-1.2,0.8c-0.1,0.3-0.1,0.5-0.2,0.8c-1.7-0.6-3-0.1-3.6,1.3
		c-0.2,0.4-0.2,0.7-0.4,1.1c-0.3,0.1-0.2,0.4-0.2,0.6c0,2.3,0,4.6,0,6.9c0,0.2-0.1,0.4,0.2,0.6c0.3,0.5-0.1,0.8-0.3,1.1
		c-0.2,0.3-0.4,0.5-0.8,0.4c-0.4-0.1-0.4-0.4-0.5-0.7c0-0.3,0-0.6,0-0.9c0-3.2,0-6.5,0-9.7c0-0.3,0-0.6-0.1-0.9
		c-0.1-0.5-0.4-0.8-0.9-0.8c-0.5,0-1,0.2-1.2,0.7c-0.1,0.2-0.2,0.5-0.2,0.7c-0.2,0.2-0.1,0.4-0.1,0.6c0,0.6,0,1.2,0,1.8
		c0,0.3-0.1,0.5-0.4,0.5c-0.5-0.1-1-0.1-1.4,0.1c-1.2,0.4-2,1.5-2,3.1c0,2.1,0,4.3,0,6.4c0,0.5-0.5,1.1-1,1.1
		c-0.5,0.1-0.8-0.3-0.8-0.9c0-0.2,0-0.5,0-0.7c0-2.1,0-4.1,0-6.2c0-0.3,0-0.6-0.1-0.9c-0.1-0.5-0.4-0.8-0.9-0.8
		c-0.5,0-0.9,0.1-1.2,0.6c-0.2,0.4-0.2,0.7-0.2,1.1c0,2.4,0,4.7,0,7.1c0,0.5-0.5,1-1,1c-0.6,0-0.8-0.4-0.8-0.9c0-0.2,0-0.4,0-0.7
		c0-1.9,0-3.7,0-5.6c0-2.1-1.7-3.1-3.7-2.2c-0.1,0-0.2,0.1-0.3,0.2c-0.2,0.2-0.4,0.2-0.6-0.1c-0.3-0.4-0.7-0.6-1.2-0.7
		c-0.8-0.2-1.6,0-2.4,0.1c-0.3,0.1-0.6,0-0.8-0.3c-0.5-0.5-1.1-0.8-1.7-1c-2.1-0.7-3.7,0.4-3.7,2.6c0,1.1,0,2.1,0,3.2
		c0,0.2,0,0.4-0.1,0.5c-0.6,0.6-1.2,1.1-2,1.4c-0.9,0.4-1.7,0-2.1-0.9c-0.1-0.3-0.2-0.6-0.3-0.9c-0.1-0.3,0-0.6,0.4-0.7
		c0.6-0.3,1.2-0.6,1.8-0.9c1.1-0.6,1.6-1.4,1.8-2.6c0.1-0.9,0.1-1.7-0.1-2.6c-0.4-1.6-1.7-2.7-3.4-2.8c-1.3-0.1-2.2,0.6-2.8,2.1
		c-0.3,0.1-0.3,0.4-0.3,0.6c0,2.2,0,4.3,0,6.5c0,0.2-0.1,0.5,0.2,0.6c0,0.2,0.1,0.4,0.1,0.6c0.6,2.5,3.3,3.7,5.5,2.4
		c0.5-0.3,0.9-0.6,1.3-0.9c0.2,1.9,1.2,3.1,3,3.5c2,0.5,3.4-0.6,3.4-2.6c0-2,0-4,0-6c0-0.2-0.1-0.4,0.2-0.4
		C76.6,82.4,77.2,82.4,77.4,83z M46.5,70.2c-0.2,2.5-1,4.8-2.1,6.9c-0.2,0.3-0.3,0.3-0.5,0.1c-0.7-0.4-1.4-0.8-2.1-1.2
		c-1.8-1-3.7-1.4-5.7-1.2c-2,0.2-3.7,1.1-4.9,2.9c-1.6,2.4-0.8,5.7,1.5,7c1.3,0.7,2.7,0.8,4.2,0.5c2.4-0.4,4.4-1.6,6.1-3.3
		c0.4-0.4,0.6-0.3,1,0c0.5,0.4,1,0.8,1.5,1.1c2.7,1.8,5.5,3.1,8.8,2.9c4.4-0.3,7.3-3.7,6.5-7.9c-0.4-2.1-1.6-3.7-3.4-4.8
		c-0.5-0.3-1-0.3-1.3,0.2c-0.3,0.4-0.2,0.9,0.4,1.3c0.1,0.1,0.2,0.1,0.3,0.2c0.9,0.8,1.6,1.7,2,2.8c0.8,3-1.3,5.7-4.4,5.5
		c-0.9-0.1-1.7-0.3-2.5-0.7c-2-1-3.7-2.6-5.6-3.8c-0.3-0.2-0.1-0.4,0-0.5c3.2-4.9,4.1-10.2,3.5-15.9c-0.4-3.8-1.7-7.3-3.2-10.7
		c-1.5-3.4-3.3-6.7-4.7-10.2c-1.3-3.2-2.3-6.4-2.1-9.9c0.2-3.3,1.2-6.2,3.5-8.6c3.3-3.3,8.4-2.7,10.5,1.2c0.7,1.2,0.9,2.6,0.9,3.9
		c0,1.4-0.4,2.7-1.2,4c-0.2-0.3-0.4-0.5-0.5-0.8c-1.8-2.2-5-2.1-6.4,0.4c-1.1,1.8-1,3.7,0,5.5c1.2,2.1,3.5,2.9,5.7,1.9
		c1.2-0.5,2.1-1.4,2.9-2.5c2.7-4,2.8-8.3,1-12.6c-1.9-4.5-7.2-6.5-11.7-4.5c-2.6,1.2-4.4,3.2-5.6,5.7c-2.1,4.1-2.2,8.5-1.5,12.9
		c0.5,3.8,1.8,7.3,3.4,10.7c1.5,3.3,3.3,6.6,4.5,10.1c0.7,2,1.3,4.1,1.4,6.3C46.5,67,46.5,68.6,46.5,70.2z M125.2,33
		c-0.1-0.2-0.2-0.4-0.2-0.5c-1.4-2.8-4.9-3-6.6-0.4c-1.1,1.8-1.1,3.7-0.2,5.5c1,2,3,3,5.2,2.5c1.9-0.4,3.1-1.7,4.1-3.3
		c2.1-3.6,2-7.3,0.6-11.1c-0.9-2.3-2.3-4.2-4.5-5.4c-3.9-1.9-8.7-0.4-11,3.6c-1.3,2.3-1.9,4.8-2,7.4c-0.4,5.6,1,10.8,3.7,15.6
		c1.9,3.4,4.2,6.4,6.4,9.5c2.2,3.1,4.5,6.2,5.9,9.7c1,2.6,1.6,5.4,1.1,8.2c-0.9,5-5.2,9.2-10.3,9.9c-2.2,0.3-4.3,0.2-6.2-1.1
		c-1.5-1-2.3-2.4-2-4.3c0.2-1.6,1-2.9,2.3-3.9c0.2-0.2,0.5-0.3,0.6-0.6c0.2-0.3,0.3-0.6,0-1c-0.2-0.3-0.6-0.5-1-0.3
		c-0.2,0.1-0.4,0.2-0.6,0.3c-2.4,1.4-3.7,4.1-3.3,7.1c0.4,2.8,2.2,4.7,5.1,5.4c4.3,1,8.3,0.2,12-2.1c3.6-2.2,5.8-5.4,6.4-9.6
		c0.4-3-0.1-6-1-8.9c-1.2-4.2-3.5-7.8-5.9-11.3c-2.4-3.5-5.1-6.9-7.2-10.6c-2.3-4-3.7-8.2-3.6-12.8c0.1-2.5,0.8-4.8,2.4-6.8
		c2.3-2.8,6.9-3.7,9.4,0.4c1.2,2,1.6,4.1,1.5,6.4C126,31.4,125.7,32.2,125.2,33z M55.4,48.4c-0.1,15.2,12.3,27.7,27.4,27.8
		c15.4,0.1,27.9-12.2,28-27.4c0.1-15.2-12.2-27.8-27.3-27.9C67.9,20.8,55.5,33,55.4,48.4z M88.2,78.9c0-0.8-0.6-1.4-1.3-1.4
		c-0.7,0-1.3,0.6-1.3,1.4c0,0.8,0.6,1.4,1.3,1.4C87.6,80.4,88.2,79.7,88.2,78.9z M88.1,4c0-0.7-0.6-1.4-1.2-1.4
		c-0.7,0-1.3,0.7-1.2,1.4c0,0.8,0.6,1.4,1.2,1.3C87.5,5.4,88.1,4.8,88.1,4z"/>
	<path class="st1" d="M81.9,1.9c-0.1,1.7-0.1,3.5-0.1,5.2c0,2.6,0,5.2,0,7.8c0,0.6-0.2,1-0.8,1.2c0.5-0.4,0.6-1,0.6-1.6
		c0-3.9,0-7.8,0-11.8C81.6,2.4,81.5,2.1,81.9,1.9z"/>
	<path class="st2" d="M62.6,78.2c-0.1,2.5-0.1,5.1,0,7.6c-0.3-0.1-0.2-0.3-0.2-0.6c0-2.2,0-4.3,0-6.5C62.3,78.6,62.3,78.3,62.6,78.2
		z"/>
	<path class="st2" d="M77.5,86.7c0.2,1.4,0.1,2.9,0,4.3c0,0-0.1,0.2-0.1,0.1c-0.1-0.1,0-0.3,0-0.4c0-2.6,0-5.1,0-7.7
		c0.2,0.2,0.2,0.5,0.1,0.8C77.5,84.8,77.5,85.7,77.5,86.7z"/>
	<path class="st2" d="M97.9,79.3c-0.1,2.7-0.1,5.4,0,8.1c-0.2-0.1-0.2-0.4-0.2-0.6c0-2.3,0-4.6,0-6.9C97.7,79.7,97.7,79.4,97.9,79.3
		z"/>
	<path class="st2" d="M87.9,15.7c-0.2-0.3-0.1-0.6-0.1-0.9c0-2.4,0-4.9,0-7.3C88,7.6,87.9,7.8,87.9,8C87.9,10.6,87.9,13.1,87.9,15.7
		z"/>
	<path class="st2" d="M97.1,12.5c0,1.7,0,3.4,0,5.2c0,0.3-0.1,0.5-0.4,0.5c0.2-0.3,0.2-0.6,0.2-0.9c0-1.4,0-2.8,0-4.1
		C96.9,12.9,96.8,12.7,97.1,12.5z"/>
	<path class="st2" d="M46.5,65.4c0.2,1.6,0.3,3.2,0,4.8C46.5,68.6,46.5,67,46.5,65.4z"/>
	<path class="st2" d="M93.9,77.2c0,1,0,2.1,0,3.1c-0.2,0-0.4-0.1-0.6-0.2c0.3,0,0.4-0.2,0.4-0.5c0-0.6,0-1.2,0-1.8
		C93.8,77.6,93.7,77.3,93.9,77.2z"/>
	<path class="st2" d="M97.1,12.1c0,0.1,0,0.2-0.1,0.4C97.1,12.3,97.1,12.2,97.1,12.1z"/>
	<path class="st3" d="M36.2,83.6c-2.6,0-3.7-1-3.8-2.6c-0.1-1.7,1.3-3.1,3.2-3.2c1-0.1,1.8,0.2,2.7,0.6c1.2,0.5,2.3,1.2,3.3,2
		c0.2,0.1,0.4,0.2,0.1,0.5C40,82.4,38,83.5,36.2,83.6z"/>
	<path class="st4" d="M63.1,17.3c0-0.9,0-1.8,0-2.7c0-0.4,0.2-0.8,0.5-1c0.5-0.4,1.1-0.3,1.4,0.3c0.1,0.3,0.2,0.5,0.2,0.8
		c0,1.6,0,3.2,0,4.7c0,0.3,0,0.6-0.1,0.9c-0.2,0.5-0.5,0.8-1.1,0.7c-0.5-0.1-0.8-0.4-0.8-1C63.1,19.2,63.1,18.3,63.1,17.3
		C63.1,17.3,63.1,17.3,63.1,17.3z"/>
	<path class="st3" d="M77.9,12.5c0,0.8,0,1.7,0,2.5c0,0.6-0.4,1.1-1,1.1c-0.6,0-0.9-0.4-1-0.9c-0.1-1.7-0.1-3.4,0-5.1
		c0.1-0.9,0.9-1.3,1.5-0.9c0.3,0.2,0.5,0.4,0.4,0.8C77.9,10.8,77.9,11.7,77.9,12.5C77.9,12.5,77.9,12.5,77.9,12.5z"/>
	<path class="st5" d="M99.3,16.3c0-1.3,0-2.5,0-3.7c0-0.4,0.1-0.9,0.7-0.8c0.5,0,0.7,0.4,0.7,0.9c0,0.4,0,0.9,0,1.3
		C100.7,15,100.2,15.7,99.3,16.3z"/>
	<path class="st6" d="M122.1,35.8c0.3,0.4,0.6,0.7,0.9,1c0.2,0.2,0.4,0.5,0.1,0.8c-0.3,0.3-0.6,0.1-0.8-0.2c-0.5-0.5-1-1.1-1.5-1.7
		c-0.1,0.5,0,0.9-0.1,1.3c0,0.3-0.1,0.7-0.5,0.6c-0.4,0-0.4-0.3-0.4-0.6c0-1.3,0-2.5,0-3.8c0-0.4,0.2-0.6,0.6-0.6c0.3,0,0.6,0,0.9,0
		c1.1,0,1.6,0.4,1.8,1.1C123.4,34.7,123.1,35.3,122.1,35.8z M120.8,34.3c0,0.9,0,0.9,0.5,0.9c0.7,0,1-0.3,1-0.9c0-0.6-0.2-0.8-1-0.9
		C120.6,33.4,120.8,33.9,120.8,34.3z"/>
	<path class="st7" d="M73.7,85.6c0,0.8,0,1.6,0,2.4c0,0.5-0.1,1-0.7,1.1c-0.6,0-0.9-0.4-1-0.9c-0.1-0.6-0.1-1.2-0.1-1.8
		c0-1.3,0-2.5,0-3.8c0-0.7,0.2-0.7,0.8-0.5c0.9,0.2,1,0.8,0.9,1.5C73.6,84.3,73.7,85,73.7,85.6z"/>
	<path class="st3" d="M100.3,79.7c0.2-0.6,0.7-0.9,1.2-0.7c0.3,0.1,0.4,0.2,0.4,0.6c0,2,0,4,0,6.1c0,0.5-0.3,1-0.8,1.1
		c-0.4,0.1-0.7-0.1-0.8-0.5C100.3,84.1,100.3,81.9,100.3,79.7z"/>
	<path class="st5" d="M93.8,88.7c-0.2,0.4-0.5,0.8-1,0.6c-0.5-0.1-0.6-0.6-0.6-1.1c0-1.5,0-3.1,0-4.6c0-0.3,0.1-0.7,0.2-0.9
		c0.4-0.6,0.9-0.7,1.4-0.1c-0.2,0.6-0.1,1.2-0.1,1.8C93.8,85.9,93.7,87.3,93.8,88.7z"/>
	<path class="st5" d="M65,83.2c0-1.4,0-2.7,0-3.9c0-0.4,0.1-0.9,0.6-0.9c0.5,0,0.9,0.3,1,0.8c0.2,0.8,0.1,1.7,0,2.5
		C66.3,82.4,65.7,82.8,65,83.2z"/>
	<path class="st2" d="M100.3,79.7c0,2.2,0,4.4,0,6.6c-0.1-0.1-0.1-0.3-0.1-0.4c0-1.9,0-3.8,0-5.6C100.2,80,100.2,79.8,100.3,79.7z"
		/>
	<path class="st2" d="M93.8,88.7c-0.2-1.4-0.1-2.8-0.1-4.3c0-0.6-0.1-1.2,0.1-1.8c0,1.9,0,3.9,0,5.8C93.9,88.6,93.9,88.7,93.8,88.7z
		"/>
	<path class="st0" d="M77.5,86.7c0-1,0-1.9,0-2.9C77.7,84.8,77.7,85.7,77.5,86.7z"/>
	<path class="st3" d="M83.1,22.6c14.4,0,26,11.7,26,26.1c0,14.4-11.7,26-26.2,25.9c-14.3,0-25.9-11.7-25.9-26.1
		C57.1,34.1,68.8,22.5,83.1,22.6z M66.9,36.5c-0.1,0.2-0.1,0.5-0.1,0.7c0,2.7,0,5.3,0,8c0,2.5,0,5,0,7.5c-1.4-0.6-2.2-1.7-2.2-3.2
		c-0.1-2.5,0.3-4.9,0.6-7.4c0.1-0.6,0.3-1.2,0.1-1.9c-0.2,0.5-0.4,1-0.6,1.6c-0.7,2.5-1.4,5.1-1.4,7.8c0,1.5,0.6,2.7,1.7,3.6
		c0.3,0.3,0.6,0.5,0.9,0.7c0.3,0.2,0.4,0.4,0.3,0.7c-0.1,0.4-0.3,0.3-0.6,0.3c-0.6,0.1-1.2,0.2-1.8,0.3c-1.3,0.3-1.6,0.6-1.7,2
		c-0.1,0.7-0.1,1.5-0.2,2.3c-1.5-2.3-2.9-6.8-3-9.2c0-1.5,0-3,0-4.6c-0.1-0.6,0.1-1.2,0.2-1.8c0.2-0.4,0.3-0.8,0.2-1.4
		c-0.2,0.5-0.3,0.8-0.3,1.2c0,0.1,0,0.2,0,0.3c-0.7,3.1-0.7,6.2-0.1,9.4c2.4,12.8,14.4,21.3,27.4,19.4c11.2-1.6,19.9-11.2,20.5-22.5
		c0.1-2.2-0.1-4.3-0.4-6.4c-0.1-0.4-0.1-0.9-0.5-1.2c0.1,0.5,0.2,1,0.3,1.5c0.3,1.8,0.4,3.7,0.2,5.5c-0.2,2.8-0.9,5.5-2.1,8
		c-0.1,0.2-0.1,0.5-0.5,0.3c-3.5-1.5-7.2-2-11-1.5c-0.4,0.1-0.6-0.1-0.7-0.5c-0.5-1.2-0.5-2.4-0.3-3.7c0.5-2.1,1.5-4,3.1-5.5
		c0.6-0.5,0.8-0.5,1.3,0.1c0.5,0.7,0.6,1.5,0.5,2.3c-0.2,1.5-0.9,2.7-2,3.8c-0.2,0.2-0.4,0.4-0.6,0.6C94,54,93.9,54.2,94,54.4
		c0.1,0.2,0.3,0.2,0.5,0.2c0.5-0.1,0.9-0.1,1.4-0.3c2.8-0.8,4.8-2.6,5.5-5.5c0.2-0.6,0.1-1.2,0.7-1.7c0.3-0.2,0.3-0.6,0.3-0.9
		c0.1-0.8-0.1-1.5-0.4-2.2c0.8-0.1,1.1-0.5,1-1.3c-0.1-0.7-0.3-1.3-0.8-1.7c0.9-0.4,1-0.8,0.7-1.6c-0.2-0.6-0.6-1.1-1-1.5
		c0.8-0.4,0.9-0.6,0.4-1.3c-0.2-0.3-0.4-0.5-0.6-0.7c-0.2-0.3-0.7-0.4-0.2-0.8c0.3-0.3,0.1-0.8-0.1-1.1c-0.4-0.7-1-1.2-1.7-1.4
		c0.6-0.7,0.5-1-0.3-1.5c-0.6-0.3-1.2-0.5-1.8-0.5c0.4-1.2,0.1-1.8-1.2-2.1c-1.6-0.4-3-0.1-4.3,0.8c-0.1,0.1-0.2,0.3-0.4,0.2
		c-0.1-2-0.9-3.6-2.3-4.4c-0.8-0.5-1.1-0.4-1.6,0.3c-0.6-0.5-1.2-0.8-1.9-1c-0.3-0.1-0.8-0.2-1,0c-0.4,0.5-0.7,0.2-1.1,0.1
		c-0.4-0.2-0.9-0.2-1.4-0.2c-0.2,0-0.4,0-0.5,0.2c-0.1,0.5-0.4,0.2-0.7,0.2c-0.6-0.1-1.4-0.4-1.8,0.1c-0.4,0.4-0.6,0.3-1,0.3
		c-0.2,0-0.5-0.1-0.7-0.1c-0.3,0-0.5,0-0.7,0.3c-0.2,0.2,0,0.4,0,0.7c-1.1-0.2-2.1,0-3.1,0.3c-0.4,0.2-1,0.3-0.4,1
		c-1.3,0.2-2.4,0.6-3.3,1.4c-0.3,0.3-0.5,0.6-0.6,0.9c-0.1,0.4,0,0.5,0.4,0.4c1-0.1,2,0,2.9,0.2c1.7,0.4,3.3,1.1,4.6,2.1
		c0.5,0.4,0.9,0.8,0.5,1.6c-0.2,0.3-0.1,0.7,0.1,1c0.6,0.8,0.6,0.8,0,1.7c-0.9,1.2-1.8,2.5-2.4,3.9c-0.1,0.2-0.3,0.3-0.5,0.5
		c-1.3,0.8-1.3,1.8,0,2.6c0.1,0.1,0.3,0.2,0.4,0.2c0.5,0.2,0.8,0.4,0.5,1c-0.1,0.2-0.1,0.5,0,0.6c0.2,0.5,0.1,1-0.1,1.5
		c-0.2,0.7-0.5,1.4-0.9,2c-0.4,0.8-0.3,1.2,0.5,1.6c0.2,0.1,0.4,0.2,0.4,0.5c-0.1,0.6,0.4,1.2,0.1,1.9c0,0.1,0,0.2,0.1,0.3
		c0.4,0.4,0.4,1,0.2,1.5c-0.2,0.7,0.1,1.3,0.6,1.8c0.5,0.4,1,0.6,1.6,0.7c0.6,0.1,1.3,0.1,2,0.2c-0.6,0.5-1.1,1-1.5,1.6
		c-1.5,2-2.3,4.3-2.7,6.7c0,0.3-0.1,0.5-0.3,0.8c-0.9,1-1.6,2.1-2.3,3.3c-0.2,0.3-0.3,0.3-0.6,0.2c-1-0.5-2-1-2.9-1.5
		c-0.3-0.2-0.4-0.4-0.4-0.7c0-0.9,0-1.7,0-2.6c0-0.4,0.1-0.8,0.3-1.2c0.4-0.6,0.7-1.3,0.5-2c0-0.1,0-0.2,0-0.3
		c0.5-1.1,0.3-2.3,0.3-3.5c0-0.4-0.3-0.7-0.2-1.2c0-1.2-0.3-1.5-1.4-1.7c-0.3,0-0.5-0.1-0.8-0.1c-0.5,0-0.6-0.3-0.6-0.6
		c0-0.3,0.2-0.4,0.4-0.6c1.6-1.3,2.3-2.9,2.1-5c-0.4-4.2-1.7-8.2-3.4-12C67.1,36.6,67.1,36.4,66.9,36.5z"/>
	<path class="st2" d="M66.9,36.5c0,0.9,0,1.8,0,2.6c0,4.3,0,8.6,0,13c0,0.2,0.2,0.5-0.2,0.6c0-2.5,0-5,0-7.5c0-2.7,0-5.3,0-8
		C66.8,36.9,66.8,36.7,66.9,36.5z"/>
	<path class="st2" d="M59.2,50.3c-0.2-1.5-0.2-3,0-4.6C59.2,47.3,59.2,48.8,59.2,50.3z"/>
	<path class="st1" d="M106.6,44c-0.2,0-0.1,0.2-0.2,0.2c-0.1-0.5-0.2-1-0.3-1.5C106.5,43.1,106.5,43.6,106.6,44z"/>
	<path class="st1" d="M59.3,44c0-0.1-0.1-0.1-0.1-0.2c0-0.4,0.1-0.8,0.3-1.2C59.6,43.2,59.5,43.6,59.3,44z"/>
	<path class="st8" d="M94,58.4c-2.8,0.4-5.3,1.6-7.7,3c0,0,0,0,0,0.1c0,0-0.1,0,0,0.1c0-0.1,0-0.1,0-0.2c0.3,0.2,0.5-0.1,0.8-0.2
		c4.9-2.2,9.8-2.3,14.8-0.5c0.8,0.3,0.8,0.3,0.3,1c-0.6,0.8-1.3,1.6-2,2.4c-0.2,0.2-0.3,0.3-0.7,0.2c-3.9-1.3-7.7-0.7-11.3,1
		c-3,1.4-5.6,3.3-7.5,6c-0.2,0.3-0.4,0.3-0.7,0.3c-1.1-0.1-2.1-0.3-3.2-0.6c1.7-2.8,3.8-5.1,6.2-7.1c-0.3-0.2-0.4,0-0.5,0.1
		c-2.5,1.7-4.6,3.8-6.2,6.3c-0.3,0.4-1,0.5-1.4,0.1c-0.2-0.2,0-0.3,0.1-0.4c1.5-2.5,3.4-4.8,5.6-6.7c4.3-3.6,9.3-5.4,15-5.4
		c0.7,0,1.3,0.1,1.9,0.2c-1,0.2-2,0-3,0.2C94.5,58.2,94.2,58.1,94,58.4z"/>
	<path class="st4" d="M84.3,38.1c0.9,1.3,1.9,2.5,2.8,3.8c1.5,2,2.2,4.1,1.5,6.6c-0.4,1.5-0.6,3-0.5,4.6c0.1,1.6,0.6,3.1,1.9,4.1
		c-0.9,0.5-1.1,0.5-1.7-0.3c-1.3-1.6-1.4-3.5-1.2-5.5c0.1-1.1,0.3-2.2,0.5-3.3c0.3-1.8,0-3.4-0.9-4.9c-1.3-2.1-3-4-4.5-5.9
		c-0.7-0.9-1.4-1.8-2.2-2.7c-0.1-0.2-0.5-0.3-0.3-0.6c0.2-0.3,0.5-0.1,0.7-0.1c3,0.2,5.8,1.3,8.3,2.9c1.2,0.8,2.5,1.6,3.6,2.6
		c1.6,1.4,2.1,3.1,1.5,5.2c-0.4,1.3-1.4,2.4-2,3.6c-0.1,0.2-0.2,0.2-0.4,0.1c-0.1,0-0.2-0.1-0.2-0.1c-1-0.4-1.8-0.9-1.5-2.3
		c0.2-1.1-0.4-2.1-0.9-3c-1.1-1.8-2.6-3.2-4.1-4.6C84.6,38.1,84.5,38,84.3,38.1z"/>
	<path class="st8" d="M83.9,55c-1.8,1.1-3.6,1.3-5.6,0.7c-0.6-0.2-0.8-0.7-0.7-1.4c0.1-0.3,0.2-0.5,0.2-0.8c0.1-0.3,0.1-0.6-0.3-0.7
		c-0.6-0.1-0.5-0.5-0.3-0.8c0.2-0.2,0.2-0.4-0.1-0.6c-0.3-0.2-0.2-0.4,0-0.7c0.2-0.3,0.1-0.6-0.3-0.7c-0.9-0.4-1-0.5-0.5-1.5
		c0.3-0.6,0.5-1.2,0.8-1.8c0.2-0.4,0.2-0.8,0-1.2c-0.2-0.4,0-0.8,0.2-1.2c0.1-0.2,0.2-0.3,0.5-0.2c0.3,0.2,0.7,0.3,1.1,0.5
		c-0.4,0.2-0.7,0.4-1.2,0.3c0.1,0.4,0.3,0.7,0.6,1c0.3,0.2,0.6,0.4,0.7,0.9c0,0.2,0.3,0.3,0.5,0.3c0.5,0,0.9-0.1,1.2-0.4
		c-0.3-0.4-0.7-0.7-1.3-0.8c-0.2,0-0.4-0.1-0.3-0.3c0-0.2,0.2-0.2,0.4-0.2c0.4,0,0.9,0,1.3,0.2c0.5,0.2,1.1,0.5,1.6,0.8
		c0.9,0.5,1,1.2,0.3,1.9c-0.3,0.2-0.5,0.5-0.8,0.6c-0.6,0.3-0.9,0.9-0.9,1.5c0,0.2,0,0.5,0,0.7c0,0.6,0,1.1,0.1,1.7
		c0.4-0.5,0.5-1.1,0.7-1.7c0.3-0.9,0.7-1.6,1.7-1.9c0.8-0.3,1-0.2,1.2,0.6c0.3,1.3,0.5,2.6,1,3.8c0.3,0.8,0.7,1.5,1.1,2.2
		c0.5,0.7,1.1,1.3,1.7,1.9c-1.3,0.5-2.6,1-3.8,1.6c-1.2,0.6-1.2,0.6-1.6-0.6c-0.1-0.1-0.1-0.3-0.2-0.4c-0.1-0.5-0.3-0.9-0.3-1.4
		c0-0.6,0.7-0.5,1-0.9C83.5,55.6,84,55.5,83.9,55C83.9,55,83.9,55,83.9,55z"/>
	<path class="st5" d="M99.1,65.2c-0.4,0.4-0.8,0.7-1.1,1c-0.3,0.2-0.5,0.1-0.8,0.1c-4.7-0.6-8.8,0.7-12.4,3.6
		c3.4-1.2,6.7-2.4,10.4-1.8c-4.1,2.6-8.6,3.7-13.5,3.5C84.2,67.4,92,62.9,99.1,65.2z"/>
	<path class="st7" d="M100.5,40.2c0.3,0.5,0.7,0.9,0.9,1.5c0.1,0.4,0.2,0.8,0,1.3c-1.5-1.9-3.5-2.7-5.9-3.1c1.4-0.6,2.7-0.5,4.1-0.2
		c-1.4-1.4-3.1-1.6-4.8-1.5c0.3-0.6,0.7-0.7,3.2-1.1c-1.5-0.7-2.9-0.5-4.4-0.3c0.9-1.4,2.3-1.6,3.7-1.9c-1.6-0.4-2.9-0.2-4.4,0.5
		c0.7-1.3,1.7-2,2.9-2.4c-1.4-0.2-2.6,0.3-3.8,1c0-0.3,0.2-0.5,0.4-0.7c1.2-1.5,2.7-2.4,4.7-2.2c0.2,0,0.3,0,0.5,0.1
		c0.6,0.2,0.7,0.5,0.3,1c-0.2,0.2-0.4,0.4-0.6,0.6c0.6,0.1,1.1,0.1,1.6,0.4c0.3,0.1,0.5,0.3,0.7,0.5c0.5,0.5,0.4,0.9-0.2,1.1
		c-0.2,0.1-0.4,0.1-0.6,0.2c0.5,0.3,0.9,0.5,1.3,0.7c0.2,0.1,0.4,0.3,0.6,0.5c0.2,0.4,0.2,0.7-0.3,0.8c-0.3,0.1-0.7,0.1-1.1,0.2
		c0.4,0.4,0.9,0.7,1.2,1c0.2,0.2,0.4,0.4,0.6,0.6C101.6,39.6,101.4,40,100.5,40.2c0-0.1,0-0.1,0-0.1
		C100.4,40.1,100.4,40.2,100.5,40.2z"/>
	<path class="st4" d="M65.8,58.9c-0.2,0-0.3-0.1-0.5,0.1c0.6,0.5,1.4,0.5,2.1,0.6c0.5,0,1,0,1.5,0c0.5,0,0.9,0,0.9,0.6
		c0,0.7-0.2,1.1-0.9,1c-0.9,0-1.8,0-2.7-0.2c-0.2,0-0.3-0.1-0.5,0c0.9,0.6,1.9,0.8,2.9,0.8c0.3,0,0.6,0,0.8,0.3
		c0.2,0.3,0,0.6-0.2,0.9c-0.1,0.2-0.3,0.3-0.5,0.2c-0.5-0.1-0.9-0.1-1.4,0c-1,0.1-1.1,0.3-1.2,1.3c0,0.1,0,0.2,0,0.4
		c-1.1-1-1.9-2.1-2.7-3.2c-0.1-0.1-0.1-0.2-0.1-0.4c0.1-1.3,0.2-2.5,0.2-3.8c0-0.8,0.5-1.1,1.1-1.2c1.3-0.3,2.6-0.3,3.9-0.3
		c0.4,0,0.7,0.1,0.9,0.5c0.3,0.6,0.1,0.8-0.5,0.8c-1.3,0.1-2.5,0.2-3.9,0c0.6,0.5,1.2,0.5,1.8,0.6c0.8,0,1.5,0,2.3,0
		c0.8,0,0.9,0.1,0.7,0.9c-0.3,0.2-0.5,0.2-0.9,0.2C68,58.9,66.9,58.9,65.8,58.9z"/>
	<path class="st8" d="M76.7,41c0.8-1.5,1.5-3,2.8-4.2c0.2-0.2,0.3-0.4,0.6-0.1c2,2.1,4.2,4.1,5.7,6.7c0.4,0.7,0.7,1.4,0.8,2.2
		C83.3,43.9,80.2,42.1,76.7,41z"/>
	<path class="st7" d="M79.4,27.3c-0.1-0.4-0.6-0.6-0.8-1c1.1-0.3,2.1,0.3,3.1,0.8c-0.3-0.5-0.7-0.8-1-1.1c1.6-0.4,3.9,1.9,4.4,4.4
		c-0.7-0.1-1.3-0.1-1.4-1c-0.1-0.6-0.5-1.1-1-1.5c-0.1,0-0.1-0.1-0.2-0.1c-0.1,0.1,0,0.1,0.1,0.2c0.2,0.5,0.5,1,0.6,1.5
		c0,0.2,0.3,0.5-0.1,0.5c-0.3,0.1-0.6,0.2-0.8-0.3c-0.3-0.6-0.6-1.1-1.2-1.5c0,0-0.1-0.1-0.1-0.1c-0.1,0-0.1-0.1-0.2,0
		c0,0,0.1,0.1,0.1,0.1c0,0,0.1,0.1,0.1,0.1c0.2,0.4,0.4,0.7,0.6,1.1c0.1,0.2,0.4,0.4,0.1,0.6c-0.3,0.1-0.6,0.3-0.9-0.1
		c-0.5-0.6-1.1-1.1-1.8-1.4c-0.2-0.1-0.5-0.1-0.7-0.2c0.7,0.5,1.3,1,1.8,1.6c0.2,0.3,0.2,0.4-0.1,0.6c-0.5,0.5-0.9,0.4-1.4,0
		c-1.9-1.4-3.3-1.8-5.9-2.1c1.4-0.7,2.8-0.7,4.3-0.6c-0.3-0.5-0.8-0.7-1.3-0.9c1-0.4,1.9-0.2,2.9-0.1C78.7,27.2,79,27.4,79.4,27.3
		C79.3,27.4,79.3,27.4,79.4,27.3C79.4,27.4,79.4,27.4,79.4,27.3C79.4,27.4,79.4,27.4,79.4,27.3z"/>
	<path class="st6" d="M91.8,36.4c-1.1-0.8-2.2-1.7-3.4-2.4c-1.4-0.8-2.9-1.3-4.4-1.7c-0.2,0-0.4-0.1-0.7,0c2.8,0.9,5.3,2.1,7.1,4.4
		c-0.5-0.3-1-0.7-1.5-1c-2.5-1.6-5.2-2.5-8.1-2.8c-0.1,0-0.1,0-0.2,0c-0.3-0.1-0.7,0-0.7-0.3c0-0.3,0.4-0.3,0.6-0.4
		c0.1,0,0.3,0,0.2-0.2c-0.4-0.7,0.3-0.6,0.5-0.6c1.2-0.3,2.4-0.1,3.6,0.2c2.4,0.7,4.5,2,6.3,3.7c0.4,0.4,0.7,0.8,1.1,1.1
		C92.1,36.5,91.9,36.5,91.8,36.4z"/>
	<path class="st7" d="M86.7,47.7c-1.9-1.1-3.9-2.1-5.9-3c-1.5-0.7-2.9-1.3-4.4-1.9c-0.4-0.2-1-0.3-0.8-0.9c0.2-0.5,0.8-0.4,1.2-0.2
		c3.2,1.3,6.3,2.8,9.3,4.5C86.9,46.7,86.9,46.7,86.7,47.7z"/>
	<path class="st9" d="M80.3,61.9c0.1-0.8,0.4-1.4,0.6-2.1c-1.1,1.2-1,3.3-2.8,4c0.6-1.9,1.3-3.8,2.8-5.3c0.3-0.3,0.6-0.5,0.7,0.2
		c0.1,0.6,0.7,1.3,0.5,1.9c-0.2,0.5-1,0.8-1.5,1.2C80.5,61.8,80.4,61.9,80.3,61.9z"/>
	<path class="st6" d="M88.2,31.8c-0.7-0.1-0.8-0.5-0.8-1.1c0-1.6-0.5-3.1-1.2-4.5c0.8-0.1,1.5,0.4,1.8,1.2
		C88.6,28.8,88.5,30.3,88.2,31.8z"/>
	<path class="st6" d="M90.7,56.1c-1.7-0.7-2.2-2.8-1.6-5.7c0.4,0.3,0.8,0.6,1.2,0.9c0.2,0.1,0.1,0.2,0.1,0.4
		C90,53.1,90.1,54.6,90.7,56.1z"/>
	<path class="st6" d="M96.4,52.6c1.7-2.3,2.2-4.6,0.8-7c1.4,1.1,2.1,2.6,1.7,4.4C98.6,51.2,97.9,52.2,96.4,52.6z"/>
	<path class="st9" d="M83.2,26c2.1-0.1,3.5,2.1,3.5,5c-0.6-0.1-0.9-0.2-1-0.9c-0.2-1.5-1-2.7-2-3.7C83.6,26.3,83.4,26.2,83.2,26z"/>
	<path class="st9" d="M91.1,33.2c-0.1-0.7,0.2-1.4,0.6-1.9c0.8-1.1,1.9-1.8,3.3-1.7c0.2,0,0.5,0.1,0.7,0.2c0.1,0,0.2,0.1,0.2,0.2
		c0,0.1-0.1,0.2-0.2,0.2c-1.9,0.4-3.4,1.5-4.5,3.1C91.2,33.2,91.2,33.2,91.1,33.2z"/>
	<path class="st9" d="M84.8,47.7c0,0,0.1,0,0.1,0c1.7,1,1.7,1,1.4,2.8c-0.1,0.8-0.1,1.6-0.2,2.3C85.4,51.2,85.3,49.4,84.8,47.7
		C84.7,47.7,84.8,47.7,84.8,47.7z"/>
	<path class="st9" d="M100.9,46.2c-1-2.4-2.6-3.9-4.9-4.8C98.7,41,101.1,43.4,100.9,46.2z"/>
	<path class="st9" d="M96.6,43.6c1.4,0.1,2.4,0.8,3,2c0.5,1.1,0.8,2.3,0.3,3.5C99.8,46.7,98.6,44.9,96.6,43.6z"/>
	<path class="st9" d="M89.2,26.9c0.8,0.6,1.1,1.5,1.1,2.4c0.1,1-0.1,2-0.4,3c-0.1,0.2,0,0.5-0.4,0.4c-0.3-0.1-0.3-0.3-0.3-0.6
		c0.2-0.6,0.2-1.2,0.3-1.9C89.6,29.1,89.4,28,89.2,26.9z"/>
	<path class="st9" d="M68.2,66.6c-0.5-0.5-1.4-0.7-1.2-1.7c0.1-0.4,0.2-0.7,0.7-0.7c0.5,0,0.6,0.4,0.6,0.7
		C68.2,65.4,68.2,66,68.2,66.6z"/>
	<path class="st9" d="M90.8,50.3c-0.5-0.3-0.9-0.6-1.3-0.8c-0.2-0.1-0.2-0.2-0.2-0.4c0.1-0.8,0.1-0.9,0.8-0.4
		c0.1,0.1,0.2,0.1,0.3,0.2C91.2,49.4,91.2,49.4,90.8,50.3z"/>
	<path class="st1" d="M94,58.4c0.2-0.3,0.5-0.2,0.7-0.2c1-0.1,2,0.1,3-0.2c1.2-0.1,2.3,0.3,3.4,0.6C98.7,58.2,96.4,58.1,94,58.4z"/>
	<path class="st2" d="M65.8,58.9c1.1,0,2.1,0,3.2,0c0.3,0,0.6,0,0.9-0.2c0,0.2,0,0.4-0.3,0.4C68.4,59,67.1,59.2,65.8,58.9z"/>
	<path class="st9" d="M91.8,36.4c0.1,0,0.2,0,0.4,0c0.3,0.2,0.5,0.5,0.7,0.8c0,0-0.1,0.1-0.1,0.1C92.4,37,92.1,36.7,91.8,36.4z"/>
	<path class="st9" d="M92.9,37.2c0.2,0.1,0.3,0.2,0.4,0.5c-0.3,0-0.3-0.2-0.5-0.4C92.8,37.3,92.8,37.3,92.9,37.2z"/>
	<path class="st9" d="M84.7,47.7c0-0.1-0.1-0.1,0-0.2C84.7,47.6,84.8,47.6,84.7,47.7C84.8,47.7,84.7,47.7,84.7,47.7z"/>
</g>
</svg>
