<?xml version="1.0" encoding="utf-8"?>
<!-- Generator: Adobe Illustrator 25.0.0, SVG Export Plug-In . SVG Version: 6.00 Build 0)  -->
<svg version="1.1" id="Calque_1" xmlns="http://www.w3.org/2000/svg" xmlns:xlink="http://www.w3.org/1999/xlink" x="0px" y="0px"
	 viewBox="0 0 580.9 460.3" style="enable-background:new 0 0 580.9 460.3;" xml:space="preserve">
<style type="text/css">
	.st0{fill:#FDFDFD;}
	.st1{fill:#040404;}
	.st2{fill:#050505;}
	.st3{fill:#FCFCFC;}
	.st4{fill:#FBFBFB;}
	.st5{fill:#FAFAFA;}
	.st6{fill:#F9F9F9;}
</style>
<path class="st0" d="M14.8,94.7c1.5-8.3,2.9-16.6,4.4-24.9c1.8-10.3-0.1-14.1-9.3-17.9c27.1,0,54.2,0,81.3,0c1.8,0,2.4,0.2,2.4,2.3
	c-0.1,110.6-0.1,221.3-0.1,331.9c0,0.2,0,0.4-0.1,0.6c-31.1,0-62.3,0-93.4,0c8.8-2.1,13.4-8,16.3-16.2c3.3-9.4,8.5-17.9,15.3-25.2
	c21.9-23.4,34.3-51.5,41-82.4c5.2-23.9,7-48.1,4.5-72.4c-2.9-27.6-10.4-53.7-26.5-76.8c-4-5.7-8.7-10.6-14.5-14.5
	c-6.4-4.2-13.4-5.5-20.9-3.9C15.1,95,14.9,94.8,14.8,94.7z"/>
<path class="st0" d="M15.2,95.1c-0.1,0.1-0.3,0.2-0.4,0.3c0-0.2-0.1-0.5-0.1-0.7C14.9,94.8,15.1,95,15.2,95.1z"/>
<g>
	<g>
		<path class="st0" d="M464.9,294.7c0,53.7,0,107.5,0.1,161.2c0,2.6-0.5,3.1-3.1,3.1c-127-0.1-253.9-0.1-380.9-0.1
			c0-81.7,0-163.4,0-245.1c1.5,1.5,1.1,3.5,1.2,5.2c0.5,4.9,2.6,8.3,7.4,9.7c4.8,1.4,8.5-0.5,11.9-5.6c5.9-9,12.3-17.6,19.4-25.7
			c11.2-12.6,23.4-23.9,38.9-31.1c7.6-3.5,15.5-5.7,24.1-5.5c-1,0.9-2.2,1.5-3.3,2.2c-44.4,27-65.4,67.3-67.6,118.3
			c-0.3,8.1,8.1,12.7,15,8.6c2.9-1.7,5.6-3.8,8.2-5.9c9.7-7.8,18-16.9,25.1-27.1c0.6-0.9,0.8-3,3.2-1.4c5.4,3.7,9.7,3,14.2-1.9
			c2.6-2.9,5.1-5.9,8.1-9.5c-0.3,5.2-0.6,9.6-0.8,14.1c-1.8,38.6-1,77.2,3.7,115.6c3.3,26.8,8.3,53.2,16.2,79
			c1.3,4.1,4.1,6.1,7.3,5.1c3.4-1,4.6-4,3.5-8.2c-1.8-6.7-3.7-13.4-5.5-20.2c-1.6-5.9-1.5-5.9,4.5-6.4c3.3-0.3,5.4-2.4,5.5-5.4
			c0.1-3.1-2-5.4-5.2-5.7c-2.1-0.2-4.2-0.1-6.4-0.1c-1.7,0.1-2.5-0.4-2.9-2.3c-3.6-18.1-5.9-36.4-7.8-54.8c-0.2-1.8,0.5-2.1,2-2.1
			c2.9,0.1,5.7,0.1,8.6,0c3.7-0.1,6.2-2.3,6.2-5.5c0-3.1-2.5-5.5-6.2-5.7c-3.1-0.1-6.2-0.1-9.4,0c-1.7,0.1-2.4-0.4-2.4-2.3
			c-0.1-4.5-0.5-9-0.7-13.5c-0.3-6.6-0.2-6.6,6.2-6.8c0.5,0,1,0,1.5-0.1c3.1-0.4,4.7-2.3,4.9-5.2c0.2-2.7-1.3-4.8-4-5.6
			c-1.3-0.3-2.7-0.4-4.1-0.4c-5.2-0.1-5.1,0-5.2-5.4c-0.3-23.1,0.7-46.2,2.4-69.3c0.5-6.9,0.9-13.9,5.2-20.2c1.1,2.5,2.1,5,3.2,7.5
			c1.4,3.5,3.5,6.7,3.7,10.8c0.5,12.6,1.4,25.2,2.4,37.8c0.4,5.5,0.6,5.5-4.6,5.8c-0.5,0-1,0-1.5,0.2c-3.1,0.7-4.9,2.6-4.7,5.8
			c0.2,3.2,2.1,5,5.3,5.2c1.2,0.1,2.5,0.2,3.7,0c2.6-0.3,3.7,0.4,3.9,3.3c0.5,6.6,1.6,13.1,2.5,19.7c2.8,19.9,6.5,39.6,11,59.2
			c0.5,2.2,0.2,2.8-2.1,2.7c-3.5-0.1-7-0.1-10.5,0c-3.8,0.1-6.2,2.4-6.2,5.6c0,3.2,2.5,5.5,6.2,5.6c4.2,0.1,8.5,0.2,12.7,0
			c2.8-0.2,3.6,1,4.2,3.4c3.8,15.1,8.4,30,13.6,44.6c2.9,8.2,6.2,16.3,9.4,24.4c1,2.6,3,4,5.8,3.7c2.6-0.3,4.3-1.8,4.9-4.4
			c0.4-1.8-0.3-3.4-1-5.1c-12.4-30.1-21.5-61.3-28.4-93.1c-7.6-35.1-12.2-70.6-14.5-106.3c-0.1-0.8-0.5-1.8,0.6-2.3l0,0.1
			c1.2,2.2,2.9,4,4.6,5.8c5.7,6.3,9.4,6.8,16.6,2c4.5,6.4,9.2,12.7,14.7,18.3c1.1,1.1,0.9,2.2,0.6,3.4c-1.8,9.2-2.2,18.5-1.7,27.9
			c0.3,5.3,2.4,8.6,6.5,9.8c4.3,1.2,7.9-0.4,10.9-5.1c3-4.7,6.2-9.3,9.8-13.7c12.5-15.1,27.3-27.3,46-34.1c0.2,0.2,0.4,0.4,0.5,0.6
			c-0.4,0.4-0.8,0.9-1.3,1.3c-25.3,21.8-37.2,50-38.7,82.9c-0.1,2.4,0.1,4.7,1.6,6.7c3,4,8.1,4.9,12.7,1.9
			c9.8-6.3,17.7-14.6,24.5-23.9c1.4-1.9,2.3-3.4,5.2-1.7c3.1,1.8,6.3,0.6,9-1.7c1.3-1.1,2.4-2.5,4-4.2c-0.1,2-0.2,3.3-0.3,4.6
			c-0.8,8.2-1.5,16.4-2.3,24.6c-0.3,3.6,1.8,6.4,5,6.7c3,0.3,5.4-1.8,6.1-5.3c0.1-0.6,0.2-1.2,0.3-1.8c1.4-14,2.9-28.1,3.1-42.2
			c0.1-5.2,2.5-9.1,4.6-13.9c1.2,2.1,2.1,3.8,2.2,5.9c1.6,18.4,2.6,36.9,2.6,55.4c0,1.9-0.2,2.8-2.5,3c-2.7,0.2-4.5,2.1-4.7,5
			c-0.2,2.9,1.1,5.4,3.7,5.7c3.5,0.4,3.4,2.2,3.2,4.7c-0.1,1.1-0.2,2.3-0.1,3.4c0.4,3.1-0.5,4.5-4,4.2c-4.3-0.3-6.6,1.9-6.7,5.3
			c-0.1,3.6,2.3,5.8,6.7,5.8c2.6,0,3.2,0.6,3,3.3c-1.4,17.8-3.6,35.5-7.1,53c-0.8,4.2,1.1,7.1,4.6,7.6c3.3,0.5,5.7-1.7,6.5-5.7
			c7.9-39.7,9.5-79.8,8.1-120.1c-0.1-3.4-0.4-6.8-0.6-11c2.1,2.3,3.5,4.1,5,5.6c2.8,2.8,6.3,4,9.9,2.1c2.5-1.3,3.4-0.2,4.6,1.5
			c6.8,9.5,14.9,17.8,24.7,24.3c3.2,2.1,6.5,2.5,9.9,0.6c3.2-1.8,4.6-4.7,4.5-8.4c-0.8-20.7-5.8-40.1-16.7-57.9
			c-8.8-14.5-20.6-26.1-35.2-35.2c2.7-0.8,4.9,0.1,7.1,0.8c12.9,4.3,23.1,12.7,32.3,22.3c7.5,7.8,13.9,16.3,19.8,25.4
			c2.4,3.7,5.7,5.3,9.9,4.4c3.9-0.8,6.1-3.5,6.9-7.5C464.1,297.7,463.5,295.9,464.9,294.7z M332.2,458.1c2.1-0.2,4-1.6,4.8-4.3
			c1-3.3,2.1-6.6,3-10c0.5-1.7,1.2-2.4,3.1-2.3c3.2,0.1,6.5,0.2,9.7,0c3.2-0.2,5.4-2.7,5.3-5.7c-0.1-3-2.3-5.3-5.5-5.5
			c-2.2-0.1-4.5,0-6.7-0.1c-0.6,0-1.8,0.3-1.6-0.8c0.6-3,1.1-6.2,2.3-9c0.9-2,3.4-0.8,5.1-0.8c5.9-0.1,8.5-1.7,8.7-5.4
			c0.2-3.9-2.4-5.8-8.5-5.8c-2.4,0-2.6-0.9-2.3-2.9c1.7-8.4,3.2-16.9,4.8-25.3c0.8-4.2-0.8-7.1-4.3-7.8c-3.5-0.7-6,1.4-6.7,5.7
			c-3,17.6-6.5,35-11.2,52.2c-1.8,6.6-3.9,13.1-5.8,19.7C325.1,454.5,327.5,458.1,332.2,458.1z"/>
		<path class="st1" d="M464.9,294.7c-1.5,1.2-0.9,3-1.2,4.4c-0.8,4-3,6.6-6.9,7.5c-4.2,0.9-7.5-0.7-9.9-4.4
			c-5.8-9.1-12.3-17.6-19.8-25.4c-9.2-9.6-19.4-18-32.3-22.3c-2.2-0.7-4.4-1.6-7.1-0.8c14.5,9.2,26.3,20.8,35.2,35.2
			c10.8,17.8,15.9,37.2,16.7,57.9c0.1,3.7-1.3,6.6-4.5,8.4c-3.3,1.9-6.7,1.5-9.9-0.6c-9.8-6.5-17.9-14.7-24.7-24.3
			c-1.2-1.7-2.1-2.8-4.6-1.5c-3.6,1.9-7.1,0.7-9.9-2.1c-1.6-1.6-2.9-3.3-5-5.6c0.2,4.2,0.5,7.6,0.6,11c1.4,40.3-0.2,80.4-8.1,120.1
			c-0.8,4-3.3,6.2-6.5,5.7c-3.5-0.5-5.4-3.4-4.6-7.6c3.5-17.5,5.7-35.2,7.1-53c0.2-2.8-0.4-3.4-3-3.3c-4.4,0.1-6.8-2.2-6.7-5.8
			c0.1-3.4,2.4-5.6,6.7-5.3c3.5,0.2,4.4-1.1,4-4.2c-0.1-1.1,0-2.3,0.1-3.4c0.2-2.4,0.4-4.3-3.2-4.7c-2.7-0.3-4-2.8-3.7-5.7
			c0.2-2.9,2-4.8,4.7-5c2.3-0.2,2.5-1.1,2.5-3c0-18.5-1-36.9-2.6-55.4c-0.2-2-1-3.7-2.2-5.9c-2,4.8-4.5,8.7-4.6,13.9
			c-0.2,14.1-1.7,28.2-3.1,42.2c-0.1,0.6-0.2,1.2-0.3,1.8c-0.7,3.5-3.1,5.6-6.1,5.3c-3.2-0.3-5.3-3-5-6.7c0.7-8.2,1.5-16.4,2.3-24.6
			c0.1-1.3,0.2-2.6,0.3-4.6c-1.7,1.8-2.7,3.1-4,4.2c-2.6,2.3-5.9,3.5-9,1.7c-2.9-1.6-3.8-0.2-5.2,1.7c-6.8,9.4-14.8,17.6-24.5,23.9
			c-4.6,3-9.7,2.1-12.7-1.9c-1.5-2-1.8-4.3-1.6-6.7c1.5-32.9,13.4-61.1,38.7-82.9c0.5-0.4,0.8-0.9,1.3-1.3c0.4-0.1,0.6-0.4,0.3-0.7
			c-0.1-0.1-0.6,0-0.9,0.1c-18.7,6.8-33.4,19-46,34.1c-3.6,4.3-6.8,8.9-9.8,13.7c-3,4.7-6.6,6.3-10.9,5.1c-4.1-1.1-6.2-4.5-6.5-9.8
			c-0.5-9.4-0.1-18.7,1.7-27.9c0.2-1.3,0.5-2.3-0.6-3.4c-5.5-5.6-10.2-11.9-14.7-18.3c-7.2,4.8-10.9,4.3-16.6-2
			c-1.7-1.8-3.4-3.6-4.6-5.8c-0.2,0.2-0.5,0.3-0.7,0.5c0.1,0.1,0.2,0.2,0.2,0.2c0.1-0.3,0.3-0.5,0.4-0.8c-1.1,0.5-0.7,1.5-0.6,2.3
			c2.4,35.8,7,71.3,14.5,106.3c6.9,31.8,16,63,28.4,93.1c0.7,1.6,1.4,3.3,1,5.1c-0.6,2.6-2.3,4.2-4.9,4.4c-2.8,0.3-4.8-1.1-5.8-3.7
			c-3.2-8.1-6.5-16.2-9.4-24.4c-5.2-14.7-9.8-29.5-13.6-44.6c-0.6-2.4-1.4-3.6-4.2-3.4c-4.2,0.3-8.5,0.2-12.7,0
			c-3.8-0.1-6.2-2.4-6.2-5.6c0-3.2,2.4-5.5,6.2-5.6c3.5-0.1,7-0.1,10.5,0c2.3,0.1,2.6-0.5,2.1-2.7c-4.6-19.6-8.2-39.3-11-59.2
			c-0.9-6.6-1.9-13.1-2.5-19.7c-0.2-2.9-1.3-3.6-3.9-3.3c-1.2,0.1-2.5,0.1-3.7,0c-3.2-0.3-5.1-2-5.3-5.2c-0.2-3.2,1.6-5.1,4.7-5.8
			c0.5-0.1,1-0.1,1.5-0.2c5.2-0.3,5-0.3,4.6-5.8c-0.9-12.6-1.9-25.2-2.4-37.8c-0.2-4.2-2.2-7.3-3.7-10.8c-1-2.5-2.1-4.9-3.2-7.5
			c-4.3,6.3-4.7,13.3-5.2,20.2c-1.7,23.1-2.7,46.1-2.4,69.3c0.1,5.3,0,5.3,5.2,5.4c1.4,0,2.8,0.1,4.1,0.4c2.8,0.7,4.2,2.8,4,5.6
			c-0.2,2.9-1.9,4.8-4.9,5.2c-0.5,0.1-1,0.1-1.5,0.1c-6.4,0.2-6.5,0.2-6.2,6.8c0.2,4.5,0.6,9,0.7,13.5c0,1.8,0.7,2.3,2.4,2.3
			c3.1-0.1,6.2-0.1,9.4,0c3.7,0.2,6.2,2.5,6.2,5.7c0,3.2-2.5,5.4-6.2,5.5c-2.9,0.1-5.7,0.1-8.6,0c-1.5,0-2.2,0.3-2,2.1
			c1.9,18.4,4.2,36.7,7.8,54.8c0.4,2,1.2,2.4,2.9,2.3c2.1-0.1,4.3-0.2,6.4,0.1c3.3,0.3,5.3,2.7,5.2,5.7c-0.1,3.1-2.2,5.1-5.5,5.4
			c-6,0.5-6.1,0.5-4.5,6.4c1.8,6.7,3.7,13.5,5.5,20.2c1.1,4.2-0.1,7.2-3.5,8.2c-3.2,1-6-0.9-7.3-5.1c-7.9-25.8-12.9-52.3-16.2-79
			c-4.7-38.4-5.5-77-3.7-115.6c0.2-4.4,0.5-8.9,0.8-14.1c-3,3.6-5.5,6.6-8.1,9.5c-4.5,5-8.7,5.7-14.2,1.9c-2.4-1.6-2.5,0.4-3.2,1.4
			c-7.2,10.2-15.4,19.3-25.1,27.1c-2.6,2.1-5.3,4.1-8.2,5.9c-7,4.2-15.4-0.5-15-8.6c2.2-51,23.3-91.4,67.6-118.3
			c1.1-0.7,2.3-1.3,3.3-2.2c-8.5-0.3-16.5,1.9-24.1,5.5c-15.5,7.2-27.8,18.5-38.9,31.1c-7.1,8.1-13.5,16.7-19.4,25.7
			c-3.4,5.1-7,7-11.9,5.6c-4.8-1.4-6.9-4.9-7.4-9.7c-0.2-1.7,0.3-3.7-1.2-5.2c0-8,0-16,0-24c1.2-0.4,0.7-1.5,0.8-2.2
			c3.1-21,11.8-38.8,30-50.9c1.3-0.9,1.3-1.7,1.1-3.1c-0.7-5.6,2.3-10.5,7.7-11.6c6.9-1.4,13.9-1.9,20.9-1.8
			c3.2,0.1,5.4,2.5,5.5,5.5c0,3-2.1,5.4-5.3,5.7c-1.4,0.1-2.8,0-4.1,0.1c-3.9,0.3-7.8,0.6-12,1c3.3,5.6,2.5,8.3-2.6,10.8
			c-3.4,1.6-6.5,3.6-9.4,6.1c-20.1,17.5-23,40.4-20.6,66c1.3-1.8,2-2.8,2.6-3.7c10.3-14.8,21.8-28.6,35.7-40.2
			c13.3-11,27.8-19.3,45.3-21.7c4.7-0.6,9.5-0.2,14.8-0.4c-7.5-7.8-16.3-12.3-26-15c-4.1-1.2-5.9-4.1-4.8-7.5c1-3.1,4.1-4.4,8-3.3
			c6.2,1.7,12,4.1,17.5,7.3c2.1,1.2,4.1,2.6,6.5,4.1c-0.5-8.7,0.3-16.8,3.5-24.4c7.9-18.7,23.4-27.8,41.8-33.1
			c7.3-2.1,14.8-2.2,22.2-0.4c16.5,4.1,27,15.3,34.8,29.6c1.8,3.3,1.3,6.8-1,9.9c-2.4,3.2-5.6,4.5-9.5,3.9
			c-7.9-1.4-15.8-2.1-23.9-1.1c-13.5,1.7-25.1,7.3-35.2,17.3c1.2-0.1,1.9,0,2.4-0.2c15.2-5.3,30.6-5.4,46.1-2.1
			c23.3,5,41.8,16.6,52.2,38.9c0.9,2,2,2,3.7,1.5c2.9-0.9,5.8-1.3,8.9-1.4c18.7-0.5,40,16.5,44.5,35.5c1.2,4.9,1.2,10,0.8,15.3
			c14.7-6.5,29.6-7.2,44.9-5.2c5.5,0.7,8.5,3.7,9.3,9.2c0.2,1.7,0.9,2.6,2.2,3.6c11.9,8,18.7,19.4,22.4,33c0.8,3,0.6,6.3,2.2,9.2
			C464.9,280.7,464.9,287.7,464.9,294.7z M242.6,172c-0.6-0.3-1.2-0.5-1.7,0.2c0.4,0.2,0.8,0.4,1.2,0.5c1.3,1.1,2.6,2.3,3.9,3.4
			c3.9,3.6,7.8,7,11.5,10.7c2.5,2.5,2.4,5.8,0.1,8c-2.2,2.2-5.4,2.2-8-0.1c-0.7-0.6-1.2-1.2-1.9-1.9c-10.2-10.3-21.9-18.5-34.9-24.9
			c-4.1-2-4.1-2-4.2,2.5c-0.8,27.2,8.5,50.8,25.5,71.7c2.8,3.5,2.8,3.4,5.1-0.3c3.1-5.1,7.6-5.2,10.9-0.3c0.9,1.4,1.7,2.8,2.6,4.1
			c3.6,5.5,7.3,10.8,12,15.9c2.9-6.4,6.1-12.2,10.8-17c1.6-1.6,1.6-3,1-4.9c-3.1-8.7-6.9-17.1-11.7-25c-2.3-3.8-1.8-7,1.2-8.8
			c3-1.8,6.2-0.7,8.4,3c4.2,7.1,8.1,14.3,10.7,22.2c1.1,3.1,2,4.6,5.4,2.2c3-2,6.5-3.1,10-4.1c2.6-0.7,5.1-1.5,7.8-2.2
			c-4.3-6.5-8.7-12.4-13.6-17.9C280.3,192.7,263.4,179.6,242.6,172z M196.6,167.3c-22.6,10.7-41.1,26.7-54.2,48.6
			c-11.5,19.1-16.9,40-18,63c8.4-6,15.1-12.4,21-19.6c4.7-5.7,8.8-11.8,12.7-18c2.8-4.4,7.4-4.3,10.2,0.1c0.8,1.3,1.6,2.6,2.5,4.1
			c0.7-0.7,1.1-1.2,1.5-1.6C190.6,221.6,202,197.2,196.6,167.3z M218.8,153.4c0.5,0.9,1.2,0.9,1.8,1c24.2,3.7,45.4,13.8,64.2,29.2
			c13.7,11.3,25.1,24.7,34.7,39.6c0.8,1.2,1.3,3,3.3,2.4c1.8-0.6,1-2.4,1.1-3.6c0.3-5,0-10-0.3-15c-0.1-1.9-0.9-2.6-2.6-2.9
			c-2.8-0.5-5.7-0.7-8.5-1.5c-6.8-1.8-9.1-9.6-4.3-14.8c2.1-2.3,4.5-4.3,7.1-6c1.8-1.2,1.7-2.2,0.9-3.9c-3.8-7.9-8.7-15-15.9-20.1
			c-18.9-13.4-39.9-17.4-62.6-12.6C230.8,146.7,224.5,149.4,218.8,153.4z M339.8,316.8c13.7-15.1,22.3-37.9,21.3-56
			c-0.1-2.7-0.7-3.1-3.1-1.8c-33.7,17.7-50.9,46-54.2,83.5c0.4,0,0.7,0,0.9-0.1c0.9-0.7,1.8-1.3,2.7-2c8.4-7.1,15-15.6,20.8-24.9
			c2.9-4.7,7.1-4.9,10.2-0.8C338.8,315.2,339.2,315.8,339.8,316.8z M428.1,343.1c-1.9-24-9.5-44.9-25.5-62.4
			c-8-8.7-17.2-15.9-27.8-21.2c-0.9-0.4-2.4-2-2.5,0.6c-0.2,5.1-1,10.3-0.3,15.3c2.4,15.6,9.6,29.1,19.7,41.2
			c5.9-7,8.6-6.7,13.4,1.1c0.3,0.5,0.7,1,1,1.6C412.1,328.2,418.9,336.2,428.1,343.1z M205.5,143.9c18.4-28.7,44.4-39.6,77.4-35.3
			c-9.1-16.3-25-24.9-43-20.1C212.4,95.7,198.6,117.4,205.5,143.9z M270,297.7c10-14.2,21.4-26,35.1-35.3
			c13.9-9.4,29.2-15.3,45.8-18c-19.1-10.6-38.3-9.6-57.1,0C275.3,253.9,268.9,277.6,270,297.7z M378.8,241
			c15.7-0.3,28.5,5.1,40.1,13.6c12.7,9.2,22.9,20.8,32,33.4c0.6,0.8,0.9,2.1,2.7,2.4c0-3.4,0.2-6.8,0-10.1
			c-1.2-18.4-7.5-33.8-25-42.6c-2.4-1.2-3.6-3.3-3-5.9c0.5-2-0.1-2.3-1.9-2.4c-5.9-0.3-11.8-0.6-17.6,0.1
			C396.4,230.8,387.3,233.7,378.8,241z M320.2,192.5c24.4,4.9,40.7,18.6,48.4,42.6c3.2-6,4.7-11.9,4.4-18.1
			c-0.7-13.3-8.9-21.8-19.4-28.4C342.7,181.9,330.1,183.5,320.2,192.5z M355.4,233.1c-4-10.2-10.3-18.2-20.6-23.7
			c0,5.5,0.1,10.3-0.1,15.2c0,1.6,0.6,1.9,1.9,2.1C343.2,228,349.3,230.2,355.4,233.1z"/>
		<path class="st0" d="M464.9,273.7c-1.7-2.8-1.4-6.1-2.2-9.2c-3.6-13.6-10.5-25-22.4-33c-1.4-0.9-2-1.9-2.2-3.6
			c-0.8-5.5-3.8-8.4-9.3-9.2c-15.2-2-30.1-1.2-44.9,5.2c0.4-5.3,0.4-10.3-0.8-15.3c-4.5-19-25.8-36.1-44.5-35.5
			c-3,0.1-6,0.5-8.9,1.4c-1.7,0.5-2.8,0.5-3.7-1.5c-10.4-22.3-28.9-33.9-52.2-38.9c-15.6-3.3-31-3.3-46.1,2.1
			c-0.6,0.2-1.2,0.1-2.4,0.2c10.1-10,21.7-15.6,35.2-17.3c8-1,15.9-0.3,23.9,1.1c3.9,0.7,7.2-0.7,9.5-3.9c2.3-3,2.8-6.5,1-9.9
			c-7.8-14.3-18.3-25.5-34.8-29.6c-7.4-1.8-14.9-1.7-22.2,0.4c-18.5,5.2-34,14.4-41.8,33.1c-3.2,7.6-4,15.7-3.5,24.4
			c-2.4-1.5-4.4-2.9-6.5-4.1c-5.5-3.2-11.4-5.7-17.5-7.3c-3.9-1.1-7,0.2-8,3.3c-1.1,3.4,0.7,6.3,4.8,7.5c9.8,2.8,18.5,7.2,26,15
			c-5.3,0.2-10-0.2-14.8,0.4c-17.4,2.3-32,10.7-45.3,21.7c-14,11.6-25.4,25.4-35.7,40.2c-0.7,1-1.4,2-2.6,3.7
			c-2.4-25.6,0.5-48.5,20.6-66c2.8-2.5,6-4.5,9.4-6.1c5.1-2.4,5.9-5.2,2.6-10.8c4.2-0.4,8.1-0.7,12-1c1.4-0.1,2.8,0,4.1-0.1
			c3.2-0.3,5.4-2.7,5.3-5.7c0-3-2.3-5.5-5.5-5.5c-7-0.1-14,0.4-20.9,1.8c-5.4,1.1-8.4,5.9-7.7,11.6c0.2,1.4,0.2,2.2-1.1,3.1
			c-18.2,12.1-26.9,29.9-30,50.9c-0.1,0.8,0.3,1.8-0.8,2.2c0-37.3,0-74.7,0-112c0-2.1,0.2-2.8,2.6-2.8c126.3,0.1,252.5,0.1,378.8,0
			c3,0,2.5,1.4,2.5,3.2C464.9,143.3,464.9,208.5,464.9,273.7z"/>
		<path class="st2" d="M332.2,458.1c-4.7,0-7-3.7-5.8-8.1c1.9-6.6,4-13.1,5.8-19.7c4.7-17.2,8.2-34.7,11.2-52.2
			c0.7-4.3,3.2-6.4,6.7-5.7c3.5,0.7,5.1,3.6,4.3,7.8c-1.6,8.5-3.1,16.9-4.8,25.3c-0.4,2-0.1,2.9,2.3,2.9c6.1,0,8.7,2,8.5,5.8
			c-0.2,3.7-2.9,5.3-8.7,5.4c-1.7,0-4.2-1.2-5.1,0.8c-1.2,2.8-1.7,6-2.3,9c-0.2,1.1,1,0.8,1.6,0.8c2.2,0,4.5-0.1,6.7,0.1
			c3.3,0.2,5.5,2.5,5.5,5.5c0.1,3-2.2,5.5-5.3,5.7c-3.2,0.2-6.5,0.2-9.7,0c-1.8-0.1-2.6,0.6-3.1,2.3c-0.9,3.4-2,6.7-3,10
			C336.2,456.6,334.3,457.9,332.2,458.1z"/>
		<path class="st3" d="M242.6,172c20.7,7.7,37.6,20.8,52.2,37.2c4.9,5.5,9.3,11.4,13.6,17.9c-2.7,0.8-5.3,1.5-7.8,2.2
			c-3.5,1-7,2-10,4.1c-3.4,2.3-4.4,0.9-5.4-2.2c-2.7-7.8-6.5-15.1-10.7-22.2c-2.2-3.7-5.4-4.8-8.4-3c-3,1.8-3.5,5-1.2,8.8
			c4.8,7.9,8.6,16.3,11.7,25c0.7,1.9,0.7,3.3-1,4.9c-4.7,4.7-7.9,10.5-10.8,17c-4.7-5-8.4-10.4-12-15.9c-0.9-1.4-1.7-2.8-2.6-4.1
			c-3.2-4.9-7.8-4.8-10.9,0.3c-2.3,3.7-2.3,3.8-5.1,0.3c-17-20.9-26.3-44.5-25.5-71.7c0.1-4.4,0.2-4.4,4.2-2.5
			c13,6.3,24.7,14.6,34.9,24.9c0.6,0.6,1.2,1.3,1.9,1.9c2.7,2.3,5.8,2.4,8,0.1c2.2-2.3,2.4-5.5-0.1-8c-3.7-3.7-7.6-7.2-11.5-10.7
			c-1.3-1.2-2.6-2.3-3.9-3.4C242.3,172.5,242.4,172.2,242.6,172z"/>
		<path class="st3" d="M196.6,167.3c5.4,29.8-6,54.3-24.2,76.5c-0.4,0.5-0.8,0.9-1.5,1.6c-0.9-1.5-1.7-2.8-2.5-4.1
			c-2.8-4.4-7.4-4.5-10.2-0.1c-3.9,6.2-8,12.3-12.7,18c-6,7.2-12.6,13.7-21,19.6c1.2-23,6.6-43.9,18-63
			C155.6,194,174,178.1,196.6,167.3z"/>
		<path class="st4" d="M218.8,153.4c5.7-4,12.1-6.7,18.9-8.2c22.6-4.7,43.7-0.8,62.6,12.6c7.1,5.1,12.1,12.2,15.9,20.1
			c0.8,1.7,0.9,2.7-0.9,3.9c-2.6,1.7-5,3.8-7.1,6c-4.9,5.1-2.6,13,4.3,14.8c2.8,0.7,5.6,1,8.5,1.5c1.6,0.3,2.4,0.9,2.6,2.9
			c0.3,5,0.7,10,0.3,15c-0.1,1.2,0.7,3-1.1,3.6c-1.9,0.6-2.5-1.1-3.3-2.4c-9.6-14.9-21-28.3-34.7-39.6c-18.8-15.5-40-25.6-64.2-29.2
			C220,154.3,219.3,154.4,218.8,153.4z"/>
		<path class="st4" d="M339.8,316.8c-0.6-0.9-1-1.6-1.4-2.1c-3.1-4.1-7.3-3.9-10.2,0.8c-5.8,9.3-12.4,17.8-20.8,24.9
			c-0.9,0.7-1.8,1.4-2.7,2c-0.2,0.1-0.5,0-0.9,0.1c3.3-37.5,20.5-65.8,54.2-83.5c2.5-1.3,3-0.9,3.1,1.8
			C362.1,278.9,353.5,301.7,339.8,316.8z"/>
		<path class="st4" d="M428.1,343.1c-9.2-6.8-16-14.9-21.8-23.8c-0.3-0.5-0.7-1-1-1.6c-4.9-7.8-7.5-8-13.4-1.1
			c-10.1-12.1-17.3-25.6-19.7-41.2c-0.8-5,0.1-10.2,0.3-15.3c0.1-2.7,1.6-1.1,2.5-0.6c10.6,5.3,19.8,12.5,27.8,21.2
			C418.6,298.1,426.2,319,428.1,343.1z"/>
		<path class="st4" d="M205.5,143.9c-6.9-26.5,7-48.1,34.4-55.4c18-4.8,33.9,3.8,43,20.1C249.9,104.2,223.9,115.1,205.5,143.9z"/>
		<path class="st4" d="M270,297.7c-1.1-20.1,5.3-43.8,23.9-53.4c18.8-9.6,38-10.6,57.1,0c-16.7,2.7-31.9,8.6-45.8,18
			C291.4,271.7,280.1,283.5,270,297.7z"/>
		<path class="st4" d="M378.8,241c8.5-7.3,17.6-10.2,27.4-11.4c5.8-0.7,11.7-0.5,17.6-0.1c1.8,0.1,2.4,0.4,1.9,2.4
			c-0.6,2.6,0.6,4.7,3,5.9c17.5,8.8,23.8,24.2,25,42.6c0.2,3.3,0,6.6,0,10.1c-1.9-0.3-2.1-1.5-2.7-2.4c-9.1-12.6-19.3-24.2-32-33.4
			C407.2,246.1,394.5,240.7,378.8,241z"/>
		<path class="st5" d="M320.2,192.5c10-9,22.6-10.6,33.4-3.9c10.5,6.5,18.7,15,19.4,28.4c0.3,6.2-1.2,12.1-4.4,18.1
			C360.8,211.1,344.5,197.4,320.2,192.5z"/>
		<path class="st6" d="M355.4,233.1c-6.1-2.9-12.3-5.1-18.7-6.4c-1.3-0.2-1.9-0.6-1.9-2.1c0.1-4.8,0.1-9.7,0.1-15.2
			C345.1,214.9,351.4,222.9,355.4,233.1z"/>
		<path class="st3" d="M242.1,172.7c-0.4-0.2-0.8-0.4-1.2-0.5c0.5-0.8,1.1-0.5,1.7-0.2C242.4,172.2,242.3,172.5,242.1,172.7z"/>
		<path class="st0" d="M223.7,246.8c-0.1,0.3-0.3,0.5-0.4,0.8c-0.1-0.1-0.2-0.2-0.2-0.2C223.3,247.2,223.5,247.1,223.7,246.8
			C223.8,246.9,223.7,246.8,223.7,246.8z"/>
		<path class="st0" d="M331.9,261.3c0.3,0,0.8-0.2,0.9-0.1c0.3,0.3,0,0.6-0.3,0.7C332.2,261.7,332,261.5,331.9,261.3z"/>
	</g>
	<g>
		<g>
			<path d="M153.7,66c1.9-0.4,4.4-1.3,6.6-2.9c3.3-2.3,4.5-5,3.4-7c-1-1.9-3-2.1-7.1-0.7c-4.9,1.8-8.5,2.1-10.2-0.7
				c-1.9-3.1,0.2-8,5.6-11.6c2.8-1.9,5.1-2.7,6.6-3c0,0.9,0.1,1.9,0.1,2.8c-1.1,0.2-3.2,0.8-5.7,2.4c-3.7,2.5-4.2,5.2-3.4,6.5
				c1.1,1.9,3.2,1.6,7.5,0.2c5.2-1.7,8.4-1.4,9.9,1.6c1.7,3.2,0.2,7.6-5.7,11.7c-2.4,1.7-5.3,3-7.1,3.3
				C154.1,67.8,153.9,66.9,153.7,66z"/>
			<path d="M184.6,50.6c-0.4-0.6-0.8-1.2-1.1-1.8c0,0-0.1,0-0.1,0.1c-0.5,1.8-2,3.9-4.6,5.4c-3.7,2.2-6.7,1.3-7.8-0.9
				c-1.8-3.5,1.3-8.1,8.8-12.1c0-0.1-0.1-0.2-0.1-0.3c-0.6-1.2-2-3.3-6-1c-1.8,1-3.5,2.6-4.6,4.1c-0.6-0.4-1.1-0.9-1.7-1.3
				c1.2-1.8,3.3-3.7,5.8-5.1c6.1-3.4,8.9-0.9,10.2,2.2c0.8,1.9,1.6,3.8,2.4,5.7c0.6,1.3,1.2,2.6,1.9,3.5
				C186.7,49.5,185.7,50,184.6,50.6z M180.7,43.2c-3.9,2-7.9,5-6.5,7.9c0.9,1.7,2.7,1.7,4.5,0.7c2.4-1.4,3.4-3.5,3.4-5
				c0-0.3-0.1-0.7-0.2-1C181.4,44.9,181,44,180.7,43.2z"/>
			<path d="M188.4,35.1c-0.6-1.6-1.2-2.9-1.8-4.1c1.1-0.5,2.2-1,3.3-1.5c0.4,0.8,0.8,1.6,1.2,2.5c0,0,0.1,0,0.1,0
				c0.4-1.9,2.3-4.5,5.6-5.9c2.8-1.2,7.6-1.7,9.3,3.8c1,3.1,2,6.3,3,9.4c-1.2,0.5-2.3,0.9-3.5,1.4c-1-3-2.1-6-3.1-9
				c-0.8-2.5-2.7-4.2-6.2-2.7c-2.4,1.1-3.8,3.2-3.8,5.1c0,0.4,0.1,0.9,0.3,1.4c1.2,3.1,2.4,6.2,3.6,9.3c-1.1,0.5-2.3,1.1-3.4,1.6
				C191.4,42.6,189.9,38.9,188.4,35.1z"/>
			<path d="M213.4,34.2c1.2,0.2,3.2,0.1,5-0.5c2.6-0.9,3.5-2.3,3.2-3.7c-0.4-1.4-1.6-1.8-4.5-1.7c-3.9,0.2-6-0.7-6.6-2.6
				c-0.8-2.6,1.3-5.7,5.8-7.2c2.1-0.7,4.1-0.8,5.3-0.6c-0.1,0.8-0.3,1.6-0.4,2.4c-0.9-0.1-2.5-0.2-4.4,0.4c-2.2,0.7-3.2,2.2-2.8,3.3
				c0.4,1.3,1.7,1.5,4.6,1.4c3.8-0.1,5.9,0.8,6.5,3.2c0.7,2.8-1.5,5.6-6,7.2c-2.1,0.7-4.2,1-5.7,0.9
				C213.3,35.9,213.4,35.1,213.4,34.2z"/>
			<path d="M235,5.6c1.3-0.3,2.6-0.6,3.9-0.9c0.5,3.4,1,6.8,1.5,10.2c0,0,0.1,0,0.1,0c0.5-1,1.3-1.9,2.4-2.7c1-0.7,2.3-1.4,3.8-1.6
				c2.8-0.6,7.5,0,8,5.7c0.3,3.3,0.7,6.5,1.1,9.8c-1.2,0.2-2.4,0.4-3.6,0.6c-0.4-3.1-0.8-6.3-1.2-9.4c-0.3-2.6-1.8-4.7-5.4-4
				c-2.4,0.5-4.2,2.3-4.6,4c-0.1,0.5-0.1,0.9,0,1.5c0.5,3.3,1.1,6.6,1.7,9.8c-1.2,0.3-2.4,0.6-3.6,0.8
				C237.7,21.6,236.3,13.6,235,5.6z"/>
			<path d="M277.9,18.9c0,1.7,0.1,3.2,0.3,4.5c-1,0.1-2.1,0.2-3.1,0.2c-0.1-0.9-0.2-1.8-0.3-2.7c0,0-0.1,0-0.1,0
				c-0.9,1.4-2.9,3.3-6.3,3.7c-3.1,0.3-6.9-0.6-7.4-6.3c-0.3-3.2-0.5-6.4-0.8-9.6c1.3-0.2,2.5-0.3,3.8-0.5c0.2,3,0.4,6.1,0.6,9.1
				c0.2,3.1,1.5,5.1,4.8,4.7c2.4-0.3,4-1.8,4.6-3.2c0.2-0.5,0.3-1,0.3-1.6c-0.1-3.4-0.2-6.8-0.3-10.1c1.3-0.1,2.5-0.2,3.8-0.3
				C277.8,10.9,277.8,14.9,277.9,18.9z"/>
			<path d="M283.9,23.1c0-5.5,0.1-11,0.2-16.5c1.3,0,2.5-0.1,3.8-0.1c-0.2,5.5-0.3,11-0.4,16.5C286.3,23,285.1,23.1,283.9,23.1z
				 M288.5,1.8c0,1-1,1.9-2.5,1.9c-1.3,0-2.3-0.7-2.3-1.8c0-1.1,1.1-1.9,2.5-2C287.7,0,288.5,0.8,288.5,1.8z"/>
			<path d="M294.7-1.3c1.3,0,2.6,0,3.9,0c-0.7,8.1-1.3,16.1-1.7,24.2c-1.2,0-2.3,0-3.5,0C293.6,14.8,294.1,6.8,294.7-1.3z"/>
			<path d="M305.4,15.5c-0.3,4,2.6,5.8,6.1,6.1c2.5,0.2,4.1,0,5.5-0.4c0.1,0.7,0.2,1.5,0.3,2.2c-1.3,0.3-3.5,0.7-6.5,0.4
				c-5.9-0.4-9.2-3.8-8.8-8.8c0.4-5,4.5-8.8,10.5-8.3c6.7,0.6,7.7,5.5,7.2,8.5c-0.1,0.6-0.3,1.1-0.3,1.4
				C314.7,16.1,310.1,15.7,305.4,15.5z M316.3,14.1c0.3-1.9-0.2-4.9-4.4-5.3c-3.8-0.3-5.7,2.4-6.2,4.5
				C309.2,13.5,312.8,13.8,316.3,14.1z"/>
			<path d="M353.8,6c-2,6.4-3.9,12.7-5.8,19.1c-0.4,1.4-0.8,3-1,4.1c-1-0.2-2-0.5-3-0.7c0.2-0.9,0.4-1.9,0.6-2.8c0,0-0.1,0-0.1,0
				c-1.5,1.5-4.1,2.4-7.1,1.8c-4.5-0.9-7.3-4.7-6.3-9.7c1.1-5.4,6-8,10.9-7c3.1,0.6,4.8,2.2,5.3,3.7c0,0,0.1,0,0.1,0
				c0.9-3.2,1.8-6.3,2.8-9.5C351.3,5.4,352.5,5.7,353.8,6z M346.1,19c0.1-0.4,0.2-0.9,0.2-1.3c0-2-1.5-3.9-4.2-4.5
				c-3.7-0.8-6.6,1.5-7.4,5.1c-0.7,3.3,0.6,6.3,4.2,7c2.3,0.5,4.7-0.4,5.9-2.4c0.2-0.4,0.4-0.8,0.5-1.2
				C345.5,20.9,345.8,19.9,346.1,19z"/>
			<path d="M356.6,23.9c-1.2,3.9,1.2,6.3,4.5,7.3c2.4,0.7,3.9,0.9,5.3,0.8c-0.1,0.7-0.1,1.5-0.2,2.2c-1.3,0.1-3.4-0.1-6.3-1
				c-5.5-1.7-7.9-5.7-6.4-10.5c1.5-4.8,6.2-7.6,11.8-5.8c6.3,2,6.1,7,5,9.8c-0.2,0.6-0.5,1-0.6,1.3C365.3,26.5,361,25.1,356.6,23.9z
				 M367.2,24.9c0.7-1.8,0.9-4.9-3-6.1c-3.5-1.1-6,1.1-6.9,3C360.6,22.8,364,23.8,367.2,24.9z"/>
			<path d="M383.2,29.5c0.9-1.9,1.6-3.5,2.2-4.9c1,0.4,2,0.8,3,1.3c-0.4,0.9-0.7,1.7-1.1,2.6c0,0,0,0,0.1,0c2.2-1.2,5-1.3,7.9,0.1
				c4.4,2.1,5.9,6.7,3.4,11c-3,5.1-8,5.9-11.9,4c-2.2-1-3.8-2.8-4.1-4.7c0,0,0,0-0.1,0c-1.3,2.7-2.5,5.4-3.8,8.1c-1-0.4-2-0.8-3-1.3
				C378.2,40.3,380.6,34.9,383.2,29.5z M384.5,34.8c-0.2,0.4-0.3,0.8-0.4,1.2c-0.3,2.1,1,4.2,3.2,5.3c3.3,1.5,6.4,0.2,8.2-3.2
				c1.6-2.9,1.1-6.3-2.4-7.9c-2.2-1-5-0.7-6.6,1.1c-0.3,0.3-0.6,0.6-0.8,1C385.3,33.1,384.9,34,384.5,34.8z"/>
			<path d="M407.3,54c0.3-0.6,0.6-1.3,0.9-1.9c0,0-0.1,0-0.1-0.1c-1.6,0.5-3.9,0.5-6.2-0.8c-3.3-1.8-3.8-4.8-2.6-6.8
				c2-3.5,6.8-3.4,13.3,0.5c0.1-0.1,0.1-0.2,0.2-0.3c0.7-1.1,1.7-3.4-1.8-5.5c-1.6-0.9-3.5-1.5-5.2-1.5c0.1-0.7,0.2-1.4,0.3-2.1
				c1.9,0,4.3,0.7,6.5,2c5.3,3.1,4.6,6.8,2.7,9.5c-1.2,1.7-2.3,3.4-3.5,5.1c-0.8,1.2-1.5,2.4-1.9,3.5C409,55.1,408.2,54.6,407.3,54z
				 M411.4,46.7c-3.2-2-7.4-3.7-9-0.9c-1,1.7-0.2,3.2,1.3,4c2.1,1.2,4.2,0.9,5.4,0c0.3-0.2,0.5-0.4,0.7-0.7
				C410.4,48.3,410.9,47.5,411.4,46.7z"/>
			<path d="M428.5,38.8c1,0.7,2.1,1.4,3.1,2.1c-4.9,6.4-9.8,12.9-14.5,19.4c-0.9-0.6-1.9-1.3-2.8-1.9
				C418.9,51.8,423.6,45.2,428.5,38.8z"/>
			<path d="M429.1,54c1.1-1.3,1.9-2.5,2.6-3.6c0.9,0.6,1.7,1.2,2.6,1.9c-0.5,0.7-1,1.4-1.6,2.2c0,0,0.1,0,0.1,0.1
				c1.9-0.6,4.3-0.6,6.9,1.5c2.2,1.7,2.8,4,2.2,6c0,0,0,0,0.1,0.1c1.1-0.3,2.2-0.3,3.2-0.2c1.4,0.2,2.7,0.8,4.2,2.1
				c2,1.8,3.9,5.4-0.2,9.5c-2.3,2.3-4.6,4.6-6.9,6.9c-0.8-0.8-1.6-1.5-2.5-2.2c2.1-2.3,4.3-4.5,6.5-6.7c2.2-2.3,2.5-4.6,0.3-6.5
				c-1.6-1.4-3.6-1.5-5.1-0.8c-0.4,0.2-0.9,0.5-1.2,0.9c-2.3,2.5-4.5,5.1-6.8,7.6c-0.9-0.7-1.7-1.4-2.6-2.1c2.1-2.5,4.3-5,6.5-7.5
				c1.7-2,1.9-4.3-0.2-6c-1.8-1.4-4.1-1.2-5.5-0.4c-0.4,0.2-0.8,0.6-1.2,1c-2.1,2.6-4.2,5.2-6.2,7.8c-0.9-0.7-1.8-1.3-2.7-1.9
				C424.2,60.3,426.6,57.2,429.1,54z"/>
			<path d="M453.3,80.2c-2.9,2.8-2,6.1,0.3,8.5c1.7,1.8,3,2.6,4.2,3.3c-0.4,0.6-0.8,1.2-1.3,1.8c-1.2-0.6-3-1.8-5-3.9
				c-4-4.1-4.1-8.8-0.5-12.3c3.6-3.5,9.1-3.7,13.2,0.6c4.6,4.8,2,9.2-0.4,11c-0.5,0.4-0.9,0.6-1.2,0.8
				C459.7,86.7,456.6,83.4,453.3,80.2z M462.2,86.3c1.5-1.2,3.1-3.8,0.3-6.8c-2.6-2.7-5.8-1.9-7.5-0.7
				C457.4,81.2,459.8,83.7,462.2,86.3z"/>
		</g>
	</g>
</g>
</svg>
