<?xml version="1.0" encoding="utf-8"?>
<!-- Generator: Adobe Illustrator 25.0.0, SVG Export Plug-In . SVG Version: 6.00 Build 0)  -->
<svg version="1.1" id="Calque_1" xmlns="http://www.w3.org/2000/svg" xmlns:xlink="http://www.w3.org/1999/xlink" x="0px" y="0px"
	 viewBox="0 0 1920 1080" style="enable-background:new 0 0 1920 1080;" xml:space="preserve">
<style type="text/css">
	.st0{fill:#F7F7F7;}
	.st1{fill:#FFFFFF;}
</style>
<g>
	<path class="st0" d="M1164.6,500.2c0,2.7,0,5.3,0,8c-0.3,1-0.6,2-0.8,3.1c-3.2,15.1-11.6,26.1-25.8,32.2c-3.3,1.4-4.1,3.1-4.1,6.5
		c0.1,61.6,0.1,123.2,0.1,184.8c0,4.1-0.7,7.6-4.6,9.8c-93.2,0-186.3,0-279.5,0c-3-2.1-5.2-4.8-3.7-8.7c1.5-4,5-4.3,8.6-4.2
		c0.8,0,1.6,0,2.4,0c43.6,0,87.3,0,130.9,0c1.6,0,3.1,0,5.1,0c0-2.2,0-3.9,0-5.6c0-46.1,0-92.1,0-138.2c0-9.4,1.4-10.8,11-10.8
		c27.7,0,55.4,0,83,0c9,0,10.5,1.5,10.5,10.4c0,46.3,0,92.6,0,139c0,1.7,0,3.3,0,4.9c8.1,0,15.5,0,22.9,0c0-61.4,0-122.6,0-183.7
		c-24.3-3.2-24.3-3.2-42-21c-9.5,13.9-22.6,20.7-39.5,20.6c-16.9,0-29.9-7-39.4-20.8c-17.7,27.9-61.8,27.8-79.2,0
		c-9.6,13.9-22.6,20.8-39.5,20.8c-16.9,0-30-6.8-39.7-20.9c-10.1,14.8-24.1,21.6-41.7,20.9c0,61.6,0,122.8,0,184.3
		c10,0,19.7,0.1,29.4,0c3.9,0,7.3,0.6,8.5,4.9c1.1,4-1.4,6.2-4.4,8c-14.1,0-28.2,0-42.3,0c-3.9-2.2-4.6-5.7-4.6-9.8
		c0.1-61.7,0-123.5,0.1-185.2c0-3.1-0.8-4.5-3.7-5.9c-4.6-2.2-9.3-4.9-12.9-8.4c-10.6-10.1-15.6-22.6-13.1-37.4
		c2.2-12.6,4.8-25.1,6.7-37.7c0.8-5.4,3-9.6,6.5-13.7c14.1-16.6,28.1-33.4,41.9-50.3c1.3-1.6,2.1-4,2.2-6
		c0.2-15.2,0.1-30.3,0.1-45.5c0-6.7,2.1-8.9,8.8-8.9c91.5,0,183.1,0,274.6,0c6.7,0,8.8,2.1,8.9,8.8c0,14.9,0.1,29.8-0.1,44.7
		c0,3.2,0.9,5.5,2.9,7.9c14.6,17.3,29.1,34.6,43.5,52.1c1.8,2.1,3.1,5,3.7,7.7c1.5,6.5,2.3,13.1,3.6,19.6
		C1161.4,484.4,1163,492.3,1164.6,500.2z M1006.7,624.8c0,35.9,0,71.3,0,106.6c26.2,0,52.1,0,77.9,0c0-35.7,0-71.2,0-106.6
		C1058.4,624.8,1032.6,624.8,1006.7,624.8z M1093.2,348.9c-88.9,0-177.5,0-266.1,0c0,13.2,0,26.1,0,39.2c88.8,0,177.3,0,266.1,0
		C1093.2,374.9,1093.2,362,1093.2,348.9z M1080.5,461.9c0.1,1.6,0.1,2.7,0.2,3.9c1.7,14.1,3,28.3,5.3,42.3c0.8,4.9,3,10,6,14
		c8.4,11.2,22.8,14.9,36.9,11.1c13.7-3.7,25-18.8,22-33.8c-2.2-11.1-4.3-22.2-6-33.3c-0.6-3.7-2.1-4.3-5.3-4.3
		c-17.4,0.1-34.8,0.1-52.2,0.1C1085.2,461.9,1083,461.9,1080.5,461.9z M776.2,462.1c-1.8,10.1-3.6,19.8-5.3,29.6
		c-0.8,4.7-2.3,9.5-1.9,14.1c1.6,16.7,13.1,27.3,29.8,28.6c20,1.6,34.3-10.8,36-30.8c0.6-7.4,1.8-14.8,2.7-22.1
		c0.8-6.4,1.6-12.8,2.4-19.4C818.6,462.1,797.7,462.1,776.2,462.1z M853.2,462.1c-1.1,8.4-2.2,16.7-3.2,25
		c-0.7,6.1-2.2,12.2-1.8,18.2c1.1,16.3,11.8,27,28.2,29c21.7,2.7,37.2-12,37.7-30.5c0.4-12.5,1.4-25,2.1-37.5c0.1-1.4,0-2.8,0-4.2
		C895,462.1,874.2,462.1,853.2,462.1z M1004.2,462.1c0,1.7-0.1,3.2,0,4.6c0.7,12.5,1.3,25,2.2,37.5c1.1,17.1,11.8,28.2,28.8,30.2
		c17.3,2.1,32-7,35.9-23.3c1.3-5.4,0.5-11.6-0.1-17.3c-1-10.6-2.6-21.1-3.9-31.7C1046.2,462.1,1025.4,462.1,1004.2,462.1z
		 M929.3,462.1c-0.7,13-1.3,25.4-1.9,37.9c-0.9,18.9,10.3,32.2,29,34.3c20.5,2.3,37.4-12.1,36.9-31.7c-0.3-9.8-1-19.7-1.5-29.5
		c-0.2-3.7-0.4-7.3-0.6-11C970.3,462.1,950,462.1,929.3,462.1z M989.7,448.9c-2.4-16-4.8-31.7-7.2-47.5c-15,0-29.7,0-44.5,0
		c-2.4,15.9-4.8,31.6-7.2,47.5C950.6,448.9,970,448.9,989.7,448.9z M857.9,448.9c20.2,0,39.8,0,59.7,0c2.4-15.9,4.8-31.6,7.3-47.7
		c-14.3,0-28.2,0-42.1,0.1c-0.8,0-1.9,0.9-2.3,1.7C873,418.1,865.6,433.2,857.9,448.9z M1062,448.9c-0.1-0.5,0-0.9-0.2-1.2
		c-7.3-14.9-14.6-29.8-22-44.7c-0.5-0.9-2.2-1.7-3.4-1.7c-5.4-0.2-10.9-0.1-16.4-0.1c-8.1,0-16.2,0-24.5,0
		c2.5,16.1,4.9,31.8,7.3,47.7C1022.7,448.9,1042.3,448.9,1062,448.9z M1134.9,449.1c-0.1-0.8,0-1.1-0.2-1.3
		c-12.6-15.1-25.2-30.2-37.8-45.3c-0.6-0.7-1.8-1.3-2.6-1.3c-13.4-0.1-26.8-0.1-40.1-0.1c0,0.6-0.1,0.9,0,1.1
		c7.3,15,14.7,30,22.1,45c0.4,0.9,2,1.7,3,1.7C1097.7,449.1,1116.1,449.1,1134.9,449.1z M866.9,401.2c-14,0-27.4-0.1-40.7,0.1
		c-1.3,0-2.8,1.4-3.7,2.5c-11.9,14.1-23.7,28.3-35.5,42.5c-0.6,0.7-1,1.6-1.8,2.8c19.1,0,37.6,0.1,56-0.1c1.2,0,2.9-1.5,3.6-2.8
		c6.2-12.3,12.2-24.7,18.3-37.1C864.3,406.6,865.5,404.1,866.9,401.2z M1084.7,590.4c-26.3,0-52.1,0-78.2,0c0,7.1,0,13.9,0,20.9
		c26.2,0,52.1,0,78.2,0C1084.7,604.3,1084.7,597.5,1084.7,590.4z"/>
	<path class="st1" d="M755,386"/>
	<path class="st0" d="M898.3,671.7c-21,0-42,0-63.1,0c-8.4,0-10.2-1.7-10.2-9.9c0-25,0-50,0-75.1c0-7.8,1.8-9.6,9.7-9.6
		c42.3,0,84.6,0,126.9,0c8.1,0,9.8,1.7,9.8,9.9c0,25.2,0,50.3,0,75.5c0,7.2-2,9.2-9.3,9.2C940.9,671.8,919.6,671.7,898.3,671.7z
		 M838.1,658.5c40.3,0,80.3,0,120.3,0c0-22.9,0-45.4,0-68c-40.2,0-80.2,0-120.3,0C838.1,613.3,838.1,635.7,838.1,658.5z"/>
	<path class="st0" d="M961,374.9c-36.4,0-72.9,0-109.3,0c-1.5,0-3,0.1-4.4-0.2c-3.4-0.7-5.4-2.9-5.2-6.5c0.1-3.4,2.1-5.4,5.4-6
		c1.3-0.2,2.6-0.2,4-0.2c73.2,0,146.3,0,219.5,0c1.3,0,2.7-0.1,4,0.2c3.2,0.7,5.2,2.7,5.2,6.1c0.1,3.4-1.8,5.5-5,6.3
		c-1.5,0.4-3.2,0.3-4.8,0.3C1033.9,374.9,997.4,374.9,961,374.9z"/>
</g>
</svg>
